<svg width="399" height="147" viewBox="0 0 399 147" fill="none" xmlns="http://www.w3.org/2000/svg">
<path d="M54.946 118.164L50.484 117.97C50.2253 117.97 49.902 117.905 49.514 117.776C49.2553 117.776 48.8673 117.711 48.35 117.582L46.604 117.194C45.9573 117.323 45.1813 117.388 44.276 117.388C43.5 117.388 42.6593 117.453 41.754 117.582C41.2367 117.582 40.59 117.065 39.814 116.03L39.038 115.06C38.9087 114.801 38.844 114.413 38.844 113.896C38.844 113.379 38.7793 112.861 38.65 112.344L37.68 109.24V107.106L36.904 106.33C36.516 105.942 36.322 105.489 36.322 104.972C36.4513 104.713 36.5807 104.39 36.71 104.002C36.8393 103.614 37.0333 103.161 37.292 102.644L35.934 101.868C35.8047 101.48 35.74 100.963 35.74 100.316C35.74 99.4107 35.9987 98.6347 36.516 97.988C36.128 97.7293 35.6753 97.212 35.158 96.436L34.188 95.66C34.3173 95.4013 34.382 94.9487 34.382 94.302C34.382 93.2673 33.6707 91.8447 32.248 90.034C32.248 89.7753 32.3127 89.258 32.442 88.482C32.5713 87.706 32.636 87.124 32.636 86.736C31.7307 86.6067 31.0193 85.378 30.502 83.05C30.114 81.7567 29.726 80.14 29.338 78.2L29.92 75.872C28.368 74.0613 27.592 72.7033 27.592 71.798C27.592 71.41 27.98 70.3753 28.756 68.694C28.6267 68.306 28.3033 68.0473 27.786 67.918L27.398 67.142C27.2687 67.0127 27.0747 66.8833 26.816 66.754C26.6867 66.6247 26.4927 66.4307 26.234 66.172C26.234 64.8787 25.7167 64.232 24.682 64.232C23.7767 64.1027 23.0653 64.1673 22.548 64.426L21.384 65.202V66.172C22.2893 67.0773 22.742 67.4653 22.742 67.336C22.742 67.4653 22.6127 67.6593 22.354 67.918V69.276C22.0953 69.5347 21.9013 69.7933 21.772 70.052C21.6427 70.1813 21.5133 70.3107 21.384 70.44C22.0307 71.0867 22.354 71.7333 22.354 72.38L21.578 74.32V76.26C20.9313 76.648 20.608 77.036 20.608 77.424C20.608 77.5533 20.7373 77.7473 20.996 78.006L21.384 78.782C21.2547 79.2993 21.1253 80.0753 20.996 81.11C20.8667 82.0153 20.7373 83.1147 20.608 84.408C20.8667 84.9253 21.0607 85.5073 21.19 86.154C21.3193 86.6713 21.4487 87.318 21.578 88.094L20.996 89.452V94.108L20.608 94.884C20.608 95.1427 20.5433 95.5307 20.414 96.048C20.414 96.5653 20.3493 97.1473 20.22 97.794C19.832 98.57 19.444 99.54 19.056 100.704C19.056 100.833 19.25 101.092 19.638 101.48C19.7673 101.739 19.832 101.933 19.832 102.062C19.9613 102.191 20.026 102.321 20.026 102.45L19.638 110.404C19.5087 110.663 19.444 110.921 19.444 111.18C19.444 111.309 19.444 111.374 19.444 111.374C19.5733 114.478 19.638 116.03 19.638 116.03C19.5087 116.418 19.1207 116.612 18.474 116.612L16.534 116.03L14.982 116.224C14.4647 116.353 14.0767 116.418 13.818 116.418C13.6887 116.418 13.5593 116.418 13.43 116.418H12.654C11.878 116.418 11.2313 116.289 10.714 116.03L9.162 115.448C9.03267 115.448 8.83867 115.642 8.58 116.03H7.222C6.834 116.03 6.51067 116.095 6.252 116.224C6.12267 116.224 5.99333 116.224 5.864 116.224L2.178 116.03C1.14333 116.03 0.626 115.513 0.626 114.478C0.626 113.961 0.690667 113.379 0.82 112.732C1.07867 111.956 1.27267 111.115 1.402 110.21C1.402 109.305 1.402 108.335 1.402 107.3C1.402 106.265 1.33733 105.231 1.208 104.196L2.954 102.45C2.566 102.062 2.30733 101.674 2.178 101.286C1.91933 100.769 1.79 100.187 1.79 99.54C1.79 97.8587 2.30733 96.5007 3.342 95.466C2.30733 94.4313 1.79 93.6553 1.79 93.138C2.04867 92.1033 2.372 91.4567 2.76 91.198C3.148 91.0687 3.47133 90.5513 3.73 89.646C3.60067 89.3873 3.40667 88.9993 3.148 88.482C3.148 87.5767 3.342 86.2833 3.73 84.602C3.47133 84.214 3.342 83.244 3.342 81.692C3.342 81.1747 3.342 80.6573 3.342 80.14C3.342 79.4933 3.40667 78.8467 3.536 78.2C3.40667 78.0707 3.342 77.8767 3.342 77.618C3.342 77.3593 3.27733 77.036 3.148 76.648L4.118 69.858C4.118 69.2113 4.118 68.5647 4.118 67.918C4.118 67.142 4.05333 66.3013 3.924 65.396L4.506 64.62C4.37667 63.9733 4.312 63.262 4.312 62.486C4.312 61.71 4.312 60.8047 4.312 59.77C4.312 59.1233 4.506 58.7353 4.894 58.606L6.058 58.218C5.92867 58.0887 5.79933 57.8947 5.67 57.636C5.54067 57.248 5.41133 56.7953 5.282 56.278C5.282 56.0193 5.21733 55.696 5.088 55.308C5.088 54.92 5.02333 54.4673 4.894 53.95L4.118 52.398L5.67 47.16L5.476 43.862C5.34667 42.9567 5.282 42.31 5.282 41.922C5.282 41.4047 5.282 41.0813 5.282 40.952L6.446 35.52C6.70467 35.2613 6.38133 34.744 5.476 33.968C6.12267 33.192 6.446 32.028 6.446 30.476L6.252 27.566C6.38133 27.3073 6.51067 27.1133 6.64 26.984C6.76933 26.7253 6.89867 26.4667 7.028 26.208L7.61 23.686L7.804 20.776L7.028 17.866L8.192 11.658C8.192 10.882 8.12733 10.4293 7.998 10.3C7.35133 9.00667 7.028 7.51933 7.028 5.838C7.028 4.80333 7.09267 3.898 7.222 3.122C7.48067 2.21666 7.67467 1.50532 7.804 0.98799C7.93333 0.470656 8.45067 0.211989 9.356 0.211989C10.0027 0.211989 10.52 0.40599 10.908 0.793993C11.0373 1.31133 11.3607 1.56999 11.878 1.56999L13.236 0.405998C14.788 1.05266 15.758 1.376 16.146 1.376L18.086 0.98799C18.3447 0.98799 18.668 1.05266 19.056 1.182L20.802 0.98799C21.3193 0.858659 21.6427 0.793993 21.772 0.793993C22.0307 0.793993 22.2247 0.793993 22.354 0.793993C24.1647 0.793993 25.3933 1.31133 26.04 2.346C26.04 3.76866 26.6867 5.77333 27.98 8.36C27.7213 8.48933 27.398 8.61866 27.01 8.74799C26.622 8.87733 26.234 9.07133 25.846 9.33C25.7167 9.58866 25.9107 10.0413 26.428 10.688C27.0747 11.3347 27.6567 11.7873 28.174 12.046C27.786 12.434 27.5273 12.8867 27.398 13.404C27.5273 13.1453 28.3033 14.6327 29.726 17.866C29.8553 17.866 29.9847 18.9653 30.114 21.164L29.726 23.298L31.278 24.462L32.442 28.924V31.058L33.606 32.416C33.4767 32.5453 33.4767 32.9333 33.606 33.58L34.576 35.326C34.4467 35.714 34.382 36.102 34.382 36.49C34.382 36.878 34.382 37.2013 34.382 37.46C34.382 38.3653 34.4467 38.9473 34.576 39.206L34.77 40.37L35.74 41.922V42.31C35.74 43.086 35.9987 43.9913 36.516 45.026C36.2573 45.802 36.0633 46.578 35.934 47.354C35.934 48.13 35.9987 48.906 36.128 49.682L37.68 51.428C37.8093 51.816 37.9387 52.3333 38.068 52.98C38.1973 53.4973 38.3913 54.0793 38.65 54.726C39.038 55.114 39.426 55.7607 39.814 56.666C40.0727 57.442 40.396 58.024 40.784 58.412C40.6547 58.5413 40.59 58.9293 40.59 59.576C40.59 59.964 40.59 60.4813 40.59 61.128C40.7193 61.7747 40.8487 62.5507 40.978 63.456C41.366 66.6893 42.0127 68.694 42.918 69.47C43.0473 69.5993 43.112 69.858 43.112 70.246C43.112 70.7633 42.7887 71.992 42.142 73.932C41.366 75.6133 40.978 76.7127 40.978 77.23C40.978 77.4887 41.1073 77.618 41.366 77.618H41.56C42.724 77.23 43.6293 75.3547 44.276 71.992C44.9227 68.5 45.246 66.754 45.246 66.754C45.3753 66.366 45.44 65.6547 45.44 64.62C45.44 63.7147 45.3753 62.68 45.246 61.516C45.1167 60.352 44.9227 59.0587 44.664 57.636L44.082 56.666L45.052 55.308C45.052 55.308 44.9227 55.0493 44.664 54.532C44.276 54.144 44.082 53.8207 44.082 53.562C44.2113 53.174 44.276 52.7213 44.276 52.204C44.4053 51.5573 44.4053 50.9107 44.276 50.264L44.082 48.518C44.082 48.13 44.0173 47.8713 43.888 47.742C43.888 47.4833 43.888 47.2893 43.888 47.16C44.1467 45.7373 45.5693 44.3793 48.156 43.086C48.2853 42.9567 47.8327 42.504 46.798 41.728L45.052 40.37V36.878L46.022 35.52C45.8927 35.3907 45.5693 34.938 45.052 34.162L45.44 33.386C45.5693 33.1273 45.634 32.8687 45.634 32.61C45.7633 31.834 45.7633 30.6053 45.634 28.924L45.246 26.208C45.246 25.5613 45.634 24.7853 46.41 23.88C46.9273 22.9747 47.38 22.522 47.768 22.522C47.5093 22.2633 47.186 22.134 46.798 22.134C46.2807 21.358 46.216 20.388 46.604 19.224C45.828 18.1893 45.5047 17.478 45.634 17.09L46.604 15.344C46.4747 14.568 46.41 13.7273 46.41 12.822C46.41 11.9167 46.41 11.0113 46.41 10.106L46.604 3.70399C46.604 2.15199 47.186 1.50533 48.35 1.76399C48.35 1.76399 48.8673 2.08732 49.902 2.73399C50.9367 3.38066 51.454 3.70399 51.454 3.70399C51.7127 3.70399 52.2947 3.50999 53.2 3.122L54.752 2.53999C54.8813 2.53999 55.3987 2.79866 56.304 3.316C56.9507 3.83333 57.4033 4.092 57.662 4.092C57.9207 4.092 58.632 3.898 59.796 3.50999L61.542 2.928C61.93 2.928 62.1887 2.99267 62.318 3.122C62.5767 3.38066 62.706 3.50999 62.706 3.50999L63.482 3.122C63.7407 2.99267 63.9993 2.928 64.258 2.928C64.646 2.928 65.1633 3.44533 65.81 4.47999L64.84 5.644C64.84 5.77333 64.9047 5.96733 65.034 6.22599C65.1633 6.35532 65.2927 6.54933 65.422 6.808L65.81 7.97199C65.81 8.10132 65.616 8.35999 65.228 8.74799C64.7107 9.26533 64.452 9.65333 64.452 9.91199L64.646 11.464C64.7753 11.852 64.84 12.1753 64.84 12.434C64.84 12.6927 64.84 12.8867 64.84 13.016C64.84 13.2747 64.7753 13.6627 64.646 14.18C64.5167 14.568 64.3873 15.0853 64.258 15.732L63.87 17.478C63.9993 17.7367 64.1287 18.06 64.258 18.448C64.3873 18.7067 64.5167 18.9653 64.646 19.224C64.646 19.3533 64.3873 19.6767 63.87 20.194C63.7407 20.582 63.676 21.164 63.676 21.94C63.5467 22.716 62.9647 23.298 61.93 23.686C61.93 23.8153 62.1887 23.9447 62.706 24.074C62.9647 24.2033 63.1587 24.3327 63.288 24.462C63.4173 24.5913 63.5467 24.7207 63.676 24.85C63.676 24.9793 63.482 25.1733 63.094 25.432L62.318 26.014C62.9647 26.6607 63.5467 27.5013 64.064 28.536C64.3227 29.4413 64.3227 30.4113 64.064 31.446C64.1933 31.5753 64.258 31.834 64.258 32.222L63.288 34.938C63.0293 35.8433 62.7707 36.49 62.512 36.878C62.2533 37.266 62.124 37.5247 62.124 37.654C62.124 38.042 62.6413 38.7533 63.676 39.788L63.288 41.728C62.6413 41.9867 61.8007 42.1807 60.766 42.31L59.408 43.474L58.826 45.414C58.9553 45.5433 59.02 45.802 59.02 46.19C59.02 46.19 59.214 46.3193 59.602 46.578C59.8607 46.578 60.2487 46.3193 60.766 45.802C61.4127 45.414 61.8007 45.22 61.93 45.22L62.512 45.608C62.6413 46.2547 62.7707 47.0307 62.9 47.936C63.0293 48.712 63.1587 49.5527 63.288 50.458C63.0293 52.786 62.8353 54.4673 62.706 55.502C62.5767 55.6313 62.4473 55.89 62.318 56.278C62.1887 56.666 61.9947 57.1833 61.736 57.83L62.124 60.158C61.736 60.2873 61.542 60.934 61.542 62.098V64.426C61.4127 64.5553 61.348 64.7493 61.348 65.008C61.348 65.1373 61.2833 65.3313 61.154 65.59L59.602 66.366C59.7313 66.4953 59.9253 66.6893 60.184 66.948C60.4427 67.0773 60.7013 67.2713 60.96 67.53C60.8307 67.918 60.8307 68.5 60.96 69.276C60.96 69.4053 61.154 69.5993 61.542 69.858C61.93 69.9873 62.124 70.246 62.124 70.634C62.124 70.8927 61.6713 71.41 60.766 72.186C60.8953 72.962 60.8953 73.6087 60.766 74.126C60.378 74.902 60.184 75.2253 60.184 75.096C60.3133 76.3893 60.5073 76.842 60.766 76.454C60.5073 76.842 60.0547 77.23 59.408 77.618L59.02 79.364C59.02 79.364 59.3433 79.8813 59.99 80.916C60.5073 81.8213 60.766 82.4033 60.766 82.662C60.766 82.9207 60.572 83.3087 60.184 83.826C59.796 84.214 59.5373 84.4727 59.408 84.602L59.99 86.93C60.378 88.482 60.5073 89.3227 60.378 89.452C60.378 91.392 59.796 92.362 58.632 92.362L58.05 91.974C57.9207 91.974 57.856 92.168 57.856 92.556C57.856 93.2027 57.9853 93.7847 58.244 94.302C58.632 94.69 59.02 94.9487 59.408 95.078L59.796 95.854L59.408 97.212C59.02 97.988 58.826 98.5053 58.826 98.764L59.02 99.346V99.734C59.02 101.027 59.0847 101.868 59.214 102.256L59.602 103.032L59.214 108.658C59.214 108.787 59.02 109.046 58.632 109.434V111.956C58.5027 112.085 58.3087 112.538 58.05 113.314V113.508C58.05 114.155 58.5027 115.577 59.408 117.776L59.214 118.164C59.0847 118.164 58.632 118.164 57.856 118.164C57.2093 118.293 56.2393 118.293 54.946 118.164ZM58.244 9.524C58.5027 9.26533 58.7613 9.13599 59.02 9.13599C59.02 9.00666 58.8907 8.81266 58.632 8.554L58.244 9.524ZM13.236 11.658C13.624 11.7873 14.012 11.5933 14.4 11.076C14.1413 10.8173 13.9473 10.688 13.818 10.688C13.43 10.688 13.236 11.0113 13.236 11.658ZM20.802 14.374C21.19 14.5033 21.578 14.3093 21.966 13.792C21.8367 13.6627 21.6427 13.598 21.384 13.598C20.996 13.598 20.802 13.8567 20.802 14.374ZM50.484 15.344C50.7427 15.4733 51.0013 15.4087 51.26 15.15C51.3893 15.0207 51.3247 14.6973 51.066 14.18C50.678 14.18 50.484 14.568 50.484 15.344ZM59.214 27.76C59.3433 27.5013 59.2787 27.2427 59.02 26.984C58.8907 26.7253 58.632 26.79 58.244 27.178C58.244 27.566 58.5673 27.76 59.214 27.76ZM18.086 41.534C18.2153 41.4047 18.28 41.2107 18.28 40.952C18.28 40.564 18.0213 40.37 17.504 40.37C17.3747 40.758 17.5687 41.146 18.086 41.534ZM23.906 51.04C24.0353 50.7813 23.9707 50.5227 23.712 50.264C23.4533 50.0053 23.1947 50.0053 22.936 50.264C22.936 50.5227 23.2593 50.7813 23.906 51.04ZM58.438 52.398C58.5673 52.1393 58.5027 51.8807 58.244 51.622C57.9853 51.3633 57.7267 51.3633 57.468 51.622C57.468 51.8807 57.7913 52.1393 58.438 52.398ZM14.206 55.308H16.922C17.8273 55.308 18.5387 55.1787 19.056 54.92L18.28 53.174C17.892 52.9153 17.504 52.7213 17.116 52.592C16.8573 52.4627 16.5987 52.3333 16.34 52.204C15.6933 52.204 15.0467 52.398 14.4 52.786L13.818 54.532L14.206 55.308ZM50.872 55.308C51.26 55.4373 51.648 55.2433 52.036 54.726C51.9067 54.5967 51.7127 54.532 51.454 54.532C51.066 54.532 50.872 54.7907 50.872 55.308ZM9.55 65.59C9.67933 65.4607 9.80867 65.3313 9.938 65.202C10.0673 65.0727 10.1967 64.9433 10.326 64.814C10.326 64.426 10.2613 64.232 10.132 64.232H9.162L8.58 64.814L8.386 65.59H9.55ZM46.798 84.214L47.768 83.438C47.768 83.3087 47.5093 83.3087 46.992 83.438C46.8627 83.5673 46.798 83.826 46.798 84.214ZM49.32 85.572C49.5787 85.7013 49.9667 85.5073 50.484 84.99C50.3547 84.8607 50.096 84.796 49.708 84.796C49.32 84.796 49.1907 85.0547 49.32 85.572ZM39.62 102.062C40.784 102.062 41.4307 101.997 41.56 101.868L40.008 101.092L39.62 102.062ZM8.58 106.718L8.192 106.136C7.93333 106.136 7.73933 106.201 7.61 106.33L8.58 106.718ZM8.58 109.822C8.70933 109.563 8.64467 109.305 8.386 109.046C8.25667 108.787 7.998 108.852 7.61 109.24C7.61 109.628 7.93333 109.822 8.58 109.822ZM13.43 109.046H12.848C12.9773 109.175 13.1713 109.499 13.43 110.016V109.046ZM19.832 115.836C19.832 115.836 19.7673 115.901 19.638 116.03C19.7673 116.03 19.832 115.965 19.832 115.836ZM94.6705 119.522C94.4119 119.522 94.3472 119.522 94.4765 119.522C94.3472 119.522 94.0885 119.393 93.7005 119.134L92.7305 118.746C92.4719 118.875 92.1485 118.94 91.7605 118.94C91.5019 118.94 91.1785 119.005 90.7905 119.134L88.0745 117.582C87.6865 116.677 87.1692 116.224 86.5225 116.224C86.3932 116.095 86.2639 116.095 86.1345 116.224C86.0052 116.353 85.7465 116.418 85.3585 116.418C85.3585 116.418 84.7119 115.901 83.4185 114.866L81.8665 114.284C81.4785 113.896 81.0259 113.443 80.5085 112.926C80.1205 112.409 79.6032 111.827 78.9565 111.18L77.4045 110.016V109.628C77.4045 109.111 77.0812 108.335 76.4345 107.3C75.7879 106.653 75.2705 106.136 74.8825 105.748C74.6239 105.231 74.4299 104.907 74.3005 104.778V102.45C74.9472 102.838 75.3352 102.773 75.4645 102.256C75.7232 101.868 75.4645 101.48 74.6885 101.092C74.1712 100.704 73.9125 100.381 73.9125 100.122V97.794C73.9125 97.406 73.9125 97.018 73.9125 96.63C73.9125 96.242 73.8479 95.854 73.7185 95.466C73.5892 94.8193 73.4599 94.2373 73.3305 93.72C73.3305 93.0733 73.3952 92.4913 73.5245 91.974L73.9125 90.034C73.7832 89.258 73.7185 88.482 73.7185 87.706C73.7185 86.8007 73.7185 85.8953 73.7185 84.99C73.7185 84.4727 73.9125 83.826 74.3005 83.05L74.8825 81.498C74.7532 80.4633 74.6239 79.364 74.4945 78.2C74.3652 76.9067 74.2359 75.6133 74.1065 74.32C74.1065 73.932 74.6239 72.7033 75.6585 70.634C75.9172 70.5047 76.1759 70.3753 76.4345 70.246C76.6932 70.1167 76.9519 69.9227 77.2105 69.664C77.2105 69.5347 76.6285 69.082 75.4645 68.306L74.8825 64.232C74.8825 63.5853 75.1412 63.1973 75.6585 63.068C76.0465 62.8093 76.1759 62.3567 76.0465 61.71L78.5685 59.964C78.4392 59.4467 77.9865 59.1233 77.2105 58.994C77.0812 58.994 76.6285 59.1233 75.8525 59.382C75.4645 59.1233 75.2705 58.8647 75.2705 58.606C75.2705 57.83 75.6585 57.1833 76.4345 56.666C77.2105 56.0193 77.5985 55.6313 77.5985 55.502L76.6285 52.204C76.6285 52.204 77.1459 51.2987 78.1805 49.488C79.0859 49.3587 79.5385 49.1 79.5385 48.712C79.5385 48.4533 79.3445 48.13 78.9565 47.742C78.4392 47.354 78.1805 47.0307 78.1805 46.772C78.1805 46.6427 78.3099 46.4487 78.5685 46.19C78.9565 45.414 79.3445 43.9913 79.7325 41.922L80.8965 40.758L81.4785 38.818C82.2545 38.5593 83.1599 38.1713 84.1945 37.654L86.7165 34.55C88.0099 32.8687 89.1092 32.0927 90.0145 32.222L90.5965 32.416C90.5965 32.2867 91.1139 32.0927 92.1485 31.834C95.2525 30.7993 96.9985 30.3467 97.3865 30.476L98.3565 30.67C99.1325 30.1527 99.7145 29.7 100.103 29.312L101.073 29.506C101.331 29.506 101.525 29.5707 101.655 29.7C101.784 29.8293 101.913 29.894 102.043 29.894L103.595 29.7L105.341 31.252C105.341 31.252 105.729 31.1227 106.505 30.864L107.475 30.476C107.992 30.7347 108.574 30.9933 109.221 31.252C109.867 31.5107 110.514 31.7693 111.161 32.028C111.807 31.7693 112.713 31.7693 113.877 32.028L113.683 32.998V33.192C113.683 33.968 114.394 34.356 115.817 34.356H117.369C117.369 34.356 118.209 35.908 119.891 39.012L121.055 38.624C121.572 38.624 121.895 38.818 122.025 39.206L124.159 46.578C124.029 46.8367 123.965 47.2893 123.965 47.936C123.965 48.4533 123.965 49.0353 123.965 49.682L124.547 51.04C124.805 51.816 124.935 52.204 124.935 52.204L124.547 52.786C124.417 52.9153 124.353 53.1093 124.353 53.368V56.278C124.223 56.4073 124.094 56.666 123.965 57.054C123.835 57.3127 123.706 57.7007 123.577 58.218C122.801 58.3473 122.413 58.606 122.413 58.994C122.413 59.382 122.995 60.0933 124.159 61.128C125.193 62.1627 125.711 62.8093 125.711 63.068C125.711 63.3267 125.387 63.456 124.741 63.456L124.159 66.172C124.029 66.3013 123.835 66.6893 123.577 67.336C123.577 68.112 123.965 69.7933 124.741 72.38C124.223 72.6387 123.835 72.962 123.577 73.35C123.577 73.35 123.577 73.8673 123.577 74.902L123.771 76.842C123.771 76.9713 123.771 77.23 123.771 77.618C123.771 77.8767 123.706 78.2647 123.577 78.782L123.383 80.722H122.413C121.378 80.722 120.537 80.2047 119.891 79.17C119.373 78.2647 118.921 77.812 118.533 77.812C118.403 77.812 118.015 78.2 117.369 78.976C116.593 79.752 116.075 80.14 115.817 80.14L113.683 79.946C113.036 79.8167 112.519 79.8167 112.131 79.946C111.743 79.946 111.484 79.946 111.355 79.946L107.281 78.2C106.375 78.976 105.341 79.364 104.177 79.364C102.754 79.364 101.525 78.9113 100.491 78.006C100.232 78.2647 100.103 78.4587 100.103 78.588H97.1925C97.0632 78.588 96.9985 78.588 96.9985 78.588C96.9985 78.4587 96.9339 78.394 96.8045 78.394H96.0285C94.8645 78.394 93.8945 79.1053 93.1185 80.528V81.304C92.9892 81.5627 92.7952 81.9507 92.5365 82.468C92.4072 82.856 92.2132 83.3087 91.9545 83.826C91.9545 83.9553 92.0839 84.1493 92.3425 84.408L92.7305 85.184V85.572C92.7305 85.7013 92.7305 85.96 92.7305 86.348C92.7305 86.6067 92.6659 86.9947 92.5365 87.512C92.6659 87.9 92.7305 88.5467 92.7305 89.452C92.7305 89.9693 92.4072 90.422 91.7605 90.81L91.3725 97.212C92.1485 97.8587 92.4719 98.958 92.3425 100.51H94.6705C95.4465 100.51 96.0285 100.769 96.4165 101.286C96.8045 101.803 97.0632 102.062 97.1925 102.062L98.5505 101.48L99.9085 102.45C100.297 102.45 100.555 102.256 100.685 101.868L101.849 99.152V96.242L102.043 93.332C102.172 92.944 102.237 92.6207 102.237 92.362C102.366 91.974 102.431 91.7153 102.431 91.586L102.237 91.004C102.495 90.4867 102.625 90.0987 102.625 89.84C102.625 89.452 102.625 89.1933 102.625 89.064L102.237 87.318C102.754 86.0247 103.401 85.378 104.177 85.378C105.211 85.8953 106.634 86.348 108.445 86.736L109.415 86.348C109.803 86.2187 110.126 86.154 110.385 86.154C110.643 86.154 111.096 86.6713 111.743 87.706C113.165 87.1887 113.877 86.93 113.877 86.93L115.429 87.9H115.817C117.369 87.9 118.856 87.2533 120.279 85.96L123.577 89.064C122.93 90.228 122.219 91.7153 121.443 93.526C121.313 94.1727 121.119 94.9487 120.861 95.854C120.731 96.7593 120.473 97.7293 120.085 98.764C119.179 99.152 118.727 99.6693 118.727 100.316C118.727 100.575 118.921 101.027 119.309 101.674C119.697 102.45 119.891 102.967 119.891 103.226L119.503 103.808C119.761 104.455 119.697 105.037 119.309 105.554L118.727 106.524C118.856 106.653 118.921 106.912 118.921 107.3C118.921 108.464 118.08 109.434 116.399 110.21L116.011 110.598C116.14 110.727 116.205 110.921 116.205 111.18C116.205 112.085 115.687 112.667 114.653 112.926C113.23 113.314 112.389 113.637 112.131 113.896C111.872 114.284 111.484 114.737 110.967 115.254C110.449 115.771 109.867 116.353 109.221 117C106.634 118.681 104.823 119.393 103.789 119.134L101.461 118.552C100.814 118.552 100.167 118.746 99.5205 119.134C98.8739 119.522 98.3565 119.651 97.9685 119.522L97.1925 119.328H96.2225C95.7052 119.328 95.3172 119.328 95.0585 119.328C94.7999 119.457 94.6059 119.522 94.4765 119.522C94.6059 119.522 94.6705 119.522 94.6705 119.522ZM98.5505 37.848L98.9385 37.072L98.3565 36.684C98.3565 37.072 98.4212 37.46 98.5505 37.848ZM112.131 44.444C112.777 44.444 113.165 44.056 113.295 43.28L113.101 40.758H112.713C112.325 40.758 112.131 40.4347 112.131 39.788C111.872 39.1413 111.549 38.818 111.161 38.818C110.643 38.5593 110.255 38.7533 109.997 39.4C109.867 39.5293 109.803 39.7233 109.803 39.982C109.932 40.2407 109.997 40.4993 109.997 40.758L110.191 42.116L109.609 42.698L112.131 44.444ZM95.0585 46.966C96.0932 46.578 96.0932 46.1253 95.0585 45.608C94.7999 45.8667 94.7999 46.3193 95.0585 46.966ZM120.279 46.772L119.891 45.996L119.309 46.384L120.279 46.772ZM94.4765 64.426L96.4165 63.844L99.1325 63.068C100.038 63.068 101.008 63.0033 102.043 62.874C103.077 62.6153 104.241 62.3567 105.535 62.098L106.117 59.77C106.246 59.6407 106.569 59.4467 107.087 59.188C106.569 58.6707 106.117 58.1533 105.729 57.636C105.47 57.1187 105.405 56.6013 105.535 56.084L105.729 54.726V53.562C105.729 52.398 105.211 51.428 104.177 50.652C104.306 50.264 104.371 49.7467 104.371 49.1C104.371 48.0653 103.207 47.4833 100.879 47.354C100.491 47.354 99.7792 47.742 98.7445 48.518L95.6405 50.652C96.1579 51.04 96.2225 51.5573 95.8345 52.204C95.7052 52.7213 95.2525 52.98 94.4765 52.98V53.562C94.8645 53.3033 95.2525 53.4973 95.6405 54.144C95.8992 54.6613 95.9639 54.9847 95.8345 55.114L95.4465 60.934C95.4465 61.322 95.4465 61.6453 95.4465 61.904C95.5759 62.1627 95.6405 62.292 95.6405 62.292C95.6405 62.68 95.4465 62.874 95.0585 62.874C94.6705 62.6153 94.3472 62.292 94.0885 61.904L93.5065 62.292L93.3125 63.456L94.4765 64.426ZM108.057 52.592C108.315 52.98 108.703 52.98 109.221 52.592C108.833 51.428 108.445 51.428 108.057 52.592ZM95.6405 62.098C95.6405 62.3567 95.6405 62.4213 95.6405 62.292C95.6405 62.292 95.6405 62.2273 95.6405 62.098ZM78.5685 77.424C78.9565 77.1653 79.4739 76.454 80.1205 75.29L79.9265 74.708H79.5385C78.8919 74.708 78.0512 75.0313 77.0165 75.678C77.4045 76.3247 77.9219 76.9067 78.5685 77.424ZM115.817 76.066C115.946 75.678 115.881 75.3547 115.623 75.096C115.493 74.9667 115.17 75.0313 114.653 75.29C114.653 75.5487 115.041 75.8073 115.817 76.066ZM82.2545 102.062L83.8065 101.286L83.6125 100.51L82.6425 100.316L82.2545 100.704V100.51L82.0605 99.734L81.4785 99.54L81.0905 101.674L82.2545 102.062ZM96.9985 105.166C97.1279 104.907 97.0632 104.649 96.8045 104.39C96.5459 104.131 96.2872 104.131 96.0285 104.39C96.0285 104.649 96.3519 104.907 96.9985 105.166ZM126.818 119.522C126.042 118.875 125.654 118.229 125.654 117.582C125.654 117.323 126.172 116.677 127.206 115.642C128.241 114.737 128.888 113.961 129.146 113.314C129.146 113.055 128.952 112.538 128.564 111.762C128.564 110.727 128.823 109.951 129.34 109.434L130.31 108.27C130.569 107.623 130.828 106.718 131.086 105.554C131.345 104.39 131.604 103.097 131.862 101.674L133.802 100.316C134.061 99.54 134.255 98.3113 134.384 96.63L135.548 95.466C135.548 95.466 135.484 95.4013 135.354 95.272C135.354 95.0133 135.29 94.69 135.16 94.302L135.548 92.556C135.807 91.5213 136.13 90.6807 136.518 90.034C137.165 90.034 137.747 89.7753 138.264 89.258C138.394 88.87 138.458 88.2233 138.458 87.318L139.04 86.542C138.911 86.4127 138.717 86.0893 138.458 85.572C138.07 85.184 137.876 84.8607 137.876 84.602C138.135 84.4727 138.523 84.02 139.04 83.244L138.846 82.662C138.846 81.498 139.558 79.8813 140.98 77.812C142.403 76.0013 142.985 74.708 142.726 73.932C142.726 73.6733 142.274 72.8973 141.368 71.604C142.144 71.3453 142.532 70.9573 142.532 70.44C142.274 69.0173 141.692 68.3707 140.786 68.5C140.528 68.5 140.269 68.6293 140.01 68.888L140.204 67.918C140.204 67.7887 139.946 67.2713 139.428 66.366C138.782 65.3313 138.394 64.4907 138.264 63.844C136.971 61.128 136.324 59.5113 136.324 58.994C136.324 58.0887 136.583 57.3773 137.1 56.86L134.966 56.472C134.837 55.696 134.449 54.4673 133.802 52.786C133.414 52.398 133.026 51.816 132.638 51.04L132.056 47.742C131.798 46.4487 131.216 45.5433 130.31 45.026C130.31 44.1207 130.052 43.2153 129.534 42.31L128.758 41.728L127.594 39.012C127.465 38.4947 127.336 37.9127 127.206 37.266C127.077 36.6193 126.883 35.8433 126.624 34.938L125.266 31.834C125.396 31.834 125.525 31.5107 125.654 30.864L126.624 30.67C126.883 31.3167 127.271 31.64 127.788 31.64L128.564 31.252C128.823 31.1227 129.082 31.058 129.34 31.058L129.922 31.252C130.052 31.3813 130.31 31.446 130.698 31.446L131.862 31.058C132.121 30.9287 132.315 30.864 132.444 30.864C132.574 30.7347 132.703 30.67 132.832 30.67H133.608C133.738 30.7993 133.867 30.864 133.996 30.864C134.384 30.9933 135.031 30.9933 135.936 30.864C136.195 32.028 137.036 32.61 138.458 32.61C139.234 31.834 140.14 31.1873 141.174 30.67L142.144 30.864C142.662 31.1227 142.92 31.252 142.92 31.252C143.696 30.9933 144.278 30.6053 144.666 30.088C145.442 30.2173 145.83 30.7993 145.83 31.834V34.162C146.089 34.6793 146.412 35.2613 146.8 35.908C147.188 36.5547 147.512 37.266 147.77 38.042L148.158 40.564L149.128 42.892C149.128 43.668 149.322 44.832 149.71 46.384L151.262 47.548C151.521 48.1947 151.456 48.7767 151.068 49.294C151.327 49.8113 151.586 49.9407 151.844 49.682L152.814 49.1L154.56 48.324C155.466 47.16 156.306 45.22 157.082 42.504C157.729 42.7627 158.182 42.7627 158.44 42.504C158.44 42.2453 158.182 41.6633 157.664 40.758L158.828 39.4C158.57 35.908 159.346 32.8687 161.156 30.282C161.674 30.4113 162.191 30.476 162.708 30.476C163.355 30.476 164.066 30.476 164.842 30.476C165.23 32.028 165.554 32.9333 165.812 33.192L166.2 32.998C166.847 32.61 167.364 32.416 167.752 32.416C168.14 32.1573 168.334 31.9633 168.334 31.834C168.334 31.7047 168.464 31.5107 168.722 31.252L171.244 29.894H171.632L171.826 30.088L173.378 29.506L174.93 31.64C175.577 30.9933 176.741 30.1527 178.422 29.118C179.328 29.118 179.78 29.7647 179.78 31.058L178.422 32.416C178.293 32.6747 178.099 33.1273 177.84 33.774C177.711 34.2913 177.517 34.8733 177.258 35.52V36.684C177.258 37.2013 177.194 37.5247 177.064 37.654C176.806 37.7833 176.482 37.9773 176.094 38.236C175.836 38.4947 175.448 38.7533 174.93 39.012C175.06 39.4 175.124 40.1113 175.124 41.146L172.99 47.742L172.02 49.488C172.02 49.7467 171.826 50.1993 171.438 50.846L170.662 51.622C170.145 51.8807 169.822 51.816 169.692 51.428C167.752 52.3333 166.782 52.8507 166.782 52.98C166.912 53.1093 167.364 53.174 168.14 53.174L170.662 53.756V55.308C170.404 56.084 170.08 56.666 169.692 57.054L168.722 56.666C168.464 56.9247 168.334 57.3127 168.334 57.83C168.334 58.3473 168.399 58.8647 168.528 59.382C168.658 59.8993 168.658 60.2873 168.528 60.546C168.011 60.6753 167.623 61.2573 167.364 62.292C167.235 63.5853 167.106 64.2967 166.976 64.426C166.33 64.6847 165.618 65.4607 164.842 66.754C164.842 67.2713 164.778 67.9827 164.648 68.888C164.648 69.7933 164.584 70.828 164.454 71.992C164.454 72.1213 164.26 72.38 163.872 72.768C163.355 73.2853 163.096 73.6733 163.096 73.932L163.678 75.29C164.066 76.1953 164.26 76.842 164.26 77.23C163.743 77.7473 163.484 78.5233 163.484 79.558C163.484 80.5927 163.678 81.11 164.066 81.11C164.584 81.11 165.101 80.6573 165.618 79.752C166.136 79.8813 166.524 80.334 166.782 81.11C166.912 81.498 166.976 82.0153 166.976 82.662C167.106 82.7913 167.235 82.9207 167.364 83.05C167.623 83.1793 167.817 83.3733 167.946 83.632L168.14 86.154C168.399 86.2833 168.593 86.6713 168.722 87.318L168.528 87.9C168.399 87.6413 168.205 87.6413 167.946 87.9V88.288L169.692 88.87C169.692 89.1287 169.434 89.7107 168.916 90.616L171.438 91.198C171.309 91.3273 171.244 91.586 171.244 91.974C171.244 92.2327 171.18 92.556 171.05 92.944C171.05 93.332 171.697 94.1727 172.99 95.466C172.861 95.854 172.796 96.5653 172.796 97.6C173.314 97.7293 173.766 98.4407 174.154 99.734C174.154 99.734 174.025 100.122 173.766 100.898C173.378 101.415 173.184 101.868 173.184 102.256C173.184 103.549 173.508 104.196 174.154 104.196C174.542 104.196 174.801 104.131 174.93 104.002C174.93 103.873 174.995 103.808 175.124 103.808C175.512 103.808 175.965 104.131 176.482 104.778C177.129 105.425 177.452 105.877 177.452 106.136C177.452 106.783 177.258 107.429 176.87 108.076V110.404C177.258 110.533 177.646 110.792 178.034 111.18C178.422 111.439 178.875 111.697 179.392 111.956L181.332 115.836V116.806C181.074 117.065 180.75 117.194 180.362 117.194L179.198 116.806C178.94 116.677 178.681 116.612 178.422 116.612C178.164 116.612 177.97 116.612 177.84 116.612C177.582 116.871 176.806 117.194 175.512 117.582C174.348 117.97 173.508 118.164 172.99 118.164C172.99 118.164 172.732 118.035 172.214 117.776C171.826 117.388 171.568 117.194 171.438 117.194L170.662 117.582C170.404 117.711 170.145 117.776 169.886 117.776L167.558 117C167.429 117 167.235 117.129 166.976 117.388C166.459 117.647 166.2 117.776 166.2 117.776H165.618C165.489 117.776 165.23 117.776 164.842 117.776C164.454 117.776 164.066 117.841 163.678 117.97H162.902C161.997 117.97 161.35 117.194 160.962 115.642L160.186 111.18C160.186 111.051 160.316 110.857 160.574 110.598C160.316 110.339 159.734 110.081 158.828 109.822C158.57 109.563 158.311 109.175 158.052 108.658L156.888 103.42C156.759 102.903 156.824 102.515 157.082 102.256C157.47 101.997 157.664 101.545 157.664 100.898L155.918 98.958C155.789 98.8287 155.595 98.376 155.336 97.6C155.207 96.824 155.142 96.3067 155.142 96.048C155.142 95.5307 155.336 94.4313 155.724 92.75L156.112 91.198C156.371 90.5513 156.177 90.0987 155.53 89.84C155.142 89.7107 154.819 89.7753 154.56 90.034C154.431 90.422 153.784 90.616 152.62 90.616C152.491 90.616 152.426 90.6807 152.426 90.81V91.78C152.426 92.556 152.362 93.2027 152.232 93.72C151.327 93.72 150.939 94.302 151.068 95.466L151.456 97.988C150.68 98.1173 150.292 98.6347 150.292 99.54C150.292 99.6693 150.422 100.122 150.68 100.898L150.874 101.868C150.745 102.127 150.616 102.515 150.486 103.032C150.486 103.42 150.357 103.873 150.098 104.39C149.193 106.071 148.805 107.041 148.934 107.3C148.934 107.559 148.676 107.882 148.158 108.27C148.158 108.787 147.77 109.757 146.994 111.18C147.382 111.697 147.576 112.344 147.576 113.12C147.576 114.155 146.994 115.577 145.83 117.388C145.313 118.164 144.537 118.552 143.502 118.552L140.98 118.164C140.592 118.164 140.075 118.487 139.428 119.134H138.652C138.135 118.229 137.682 117.776 137.294 117.776L136.518 118.164C136.26 118.293 136.066 118.358 135.936 118.358C135.807 118.487 135.678 118.552 135.548 118.552C134.126 118.811 133.414 118.811 133.414 118.552L131.862 118.164C130.44 118.164 128.758 118.617 126.818 119.522ZM173.766 35.326C173.896 35.326 174.025 35.2613 174.154 35.132L174.542 34.938L174.154 34.356C174.154 34.4853 174.09 34.6147 173.96 34.744L173.766 35.326ZM138.652 42.698C140.98 42.698 142.144 42.1807 142.144 41.146V40.952C142.015 40.4347 141.627 40.176 140.98 40.176L140.01 40.564C139.493 40.564 139.105 40.37 138.846 39.982L139.234 38.624L138.458 38.818C137.812 38.818 137.488 39.3353 137.488 40.37C137.488 40.758 137.618 41.4693 137.876 42.504C137.876 42.6333 138.135 42.698 138.652 42.698ZM166.394 41.728C166.782 41.8573 167.106 41.7927 167.364 41.534C167.623 41.2753 167.494 41.0167 166.976 40.758C166.588 40.758 166.394 41.0813 166.394 41.728ZM166.006 48.518C166.136 48.2593 166.071 48.0007 165.812 47.742C165.683 47.6127 165.36 47.6773 164.842 47.936C165.101 48.324 165.489 48.518 166.006 48.518ZM143.89 66.366C144.02 66.2367 143.826 65.978 143.308 65.59L142.92 65.978C143.05 66.1073 143.179 66.172 143.308 66.172C143.567 66.172 143.761 66.2367 143.89 66.366ZM148.74 71.798C148.74 71.5393 148.611 71.2807 148.352 71.022C148.223 70.7633 147.964 70.828 147.576 71.216C147.576 71.604 147.964 71.798 148.74 71.798ZM161.544 101.674C162.32 101.674 162.708 100.963 162.708 99.54C162.579 98.8933 162.385 98.5053 162.126 98.376H161.156C161.156 98.376 160.962 98.6993 160.574 99.346L160.186 100.316C160.316 101.221 160.768 101.674 161.544 101.674ZM138.846 100.122C138.976 99.8633 138.911 99.6047 138.652 99.346C138.523 99.2167 138.2 99.2813 137.682 99.54C137.941 99.928 138.329 100.122 138.846 100.122ZM143.114 113.896C143.244 113.637 143.179 113.379 142.92 113.12C142.791 112.991 142.468 113.055 141.95 113.314C142.209 113.702 142.597 113.896 143.114 113.896Z" fill="#D00000"/>
<path d="M217.965 22.522C217.448 22.3927 216.801 22.0047 216.025 21.358C215.637 20.97 215.443 20.5173 215.443 20C215.314 19.224 215.378 18.448 215.637 17.672L216.607 16.508C216.736 16.3787 216.736 16.0553 216.607 15.538C216.607 15.0207 216.542 14.6973 216.413 14.568C215.896 14.3093 215.572 13.9213 215.443 13.404C215.314 13.1453 215.249 12.3693 215.249 11.076L215.637 9.71799C215.766 9.32999 215.831 9.00666 215.831 8.74799C215.831 8.35999 215.831 8.10132 215.831 7.97199L216.025 2.928C216.284 2.15199 216.801 1.76399 217.577 1.76399L218.159 1.95799C218.288 2.08733 218.482 2.152 218.741 2.152L219.905 1.56999H222.233C222.492 1.56999 222.815 1.82866 223.203 2.346C223.462 2.734 223.656 3.05733 223.785 3.316C224.044 3.44533 224.238 3.57466 224.367 3.70399C224.626 3.316 225.143 2.99266 225.919 2.73399L226.307 0.793993C226.824 0.923325 227.471 1.31132 228.247 1.95799C228.506 2.08733 229.217 2.152 230.381 2.152C230.51 2.152 230.769 1.958 231.157 1.56999C231.545 1.18199 231.868 0.98799 232.127 0.98799L234.067 1.182C234.326 1.69933 234.584 2.34599 234.843 3.122C235.102 3.76866 235.36 4.41533 235.619 5.062C235.619 5.32066 235.49 5.57933 235.231 5.838C235.49 5.96733 235.49 6.74333 235.231 8.16599L234.649 8.94199C234.649 9.45933 234.455 10.0413 234.067 10.688L233.291 10.3C232.903 10.3 232.58 10.688 232.321 11.464C232.709 11.9813 232.968 12.24 233.097 12.24L234.067 11.852C234.455 11.852 234.778 12.1753 235.037 12.822V15.538L235.619 19.612V19.806C235.619 20.8407 234.972 21.4227 233.679 21.552L232.709 20.97C232.45 21.0993 232.127 21.2287 231.739 21.358C231.48 21.4873 231.222 21.6167 230.963 21.746L229.605 21.358C229.217 21.2287 228.829 21.164 228.441 21.164C227.148 21.164 225.854 21.2287 224.561 21.358C223.268 21.4873 222.104 21.6813 221.069 21.94C220.552 22.328 219.905 22.522 219.129 22.522H217.965ZM229.993 4.28599C230.122 4.15666 230.381 4.092 230.769 4.092L230.575 3.316C230.058 3.44533 229.864 3.76866 229.993 4.28599ZM221.069 8.554H220.293L221.069 9.524V8.554ZM229.993 118.94C229.734 118.94 229.476 118.811 229.217 118.552C228.958 118.293 228.764 118.164 228.635 118.164L224.755 117.776C224.626 117.776 224.302 117.905 223.785 118.164C223.397 118.293 223.009 118.358 222.621 118.358L220.875 118.164C220.358 118.035 219.97 117.97 219.711 117.97C219.452 117.97 219.258 117.97 219.129 117.97C219 118.099 218.741 118.229 218.353 118.358C218.094 118.487 217.771 118.617 217.383 118.746L216.413 118.358V114.866L217.189 113.702C217.318 113.314 217.383 112.473 217.383 111.18C217.9 111.051 218.03 110.663 217.771 110.016L217.189 108.852C217.189 107.688 217.577 106.912 218.353 106.524C219.129 106.136 219.517 105.877 219.517 105.748C219.517 105.489 219.452 105.231 219.323 104.972C219.323 104.584 219.258 104.131 219.129 103.614C218.612 103.226 218.159 102.644 217.771 101.868C217.642 101.48 217.448 100.898 217.189 100.122C216.801 97.406 216.607 95.4013 216.607 94.108C216.995 93.5907 217.06 92.1033 216.801 89.646L217.383 89.064C217.383 89.064 217.383 88.288 217.383 86.736C217.642 86.4773 217.836 86.0893 217.965 85.572L216.413 84.796V83.244C216.413 82.5973 216.348 81.9507 216.219 81.304C216.219 80.528 216.154 79.752 216.025 78.976L215.637 76.066C216.154 75.9367 216.478 74.6433 216.607 72.186L217.965 72.38L218.159 72.186V70.828C217.771 70.1813 217.189 69.9873 216.413 70.246C216.413 69.47 216.284 68.1767 216.025 66.366C215.896 64.5553 215.831 63.65 215.831 63.65C215.831 63.5207 215.96 63.068 216.219 62.292L216.607 61.516V57.054C216.607 56.1487 216.413 55.502 216.025 55.114V54.338C216.025 53.562 216.154 52.9153 216.413 52.398C217.06 52.398 217.448 52.1393 217.577 51.622C217.706 51.1047 217.383 50.7167 216.607 50.458C216.736 50.3287 216.801 50.07 216.801 49.682C216.801 49.294 216.607 48.8413 216.219 48.324V43.28L216.995 36.878L216.607 34.938L216.025 33.192V31.834H218.741C219.388 32.8687 220.034 33.386 220.681 33.386L222.233 32.61C223.268 32.222 223.785 32.028 223.785 32.028C223.914 32.028 224.238 32.222 224.755 32.61C225.272 33.1273 225.596 33.386 225.725 33.386L227.471 32.804C227.342 33.0627 227.277 33.3213 227.277 33.58C227.277 33.7093 227.277 33.774 227.277 33.774V33.968C227.277 34.0973 227.794 34.162 228.829 34.162C229.476 34.162 229.928 34.0327 230.187 33.774C230.446 33.5153 230.64 33.386 230.769 33.386C230.898 33.5153 231.222 33.58 231.739 33.58H232.321C232.58 33.3213 232.774 32.9333 232.903 32.416L235.037 31.446C235.684 31.446 236.072 31.834 236.201 32.61C236.201 33.1273 236.136 33.8387 236.007 34.744C235.878 35.6493 235.684 36.8133 235.425 38.236C233.744 38.236 232.903 38.4947 232.903 39.012C232.903 39.012 233.42 39.5293 234.455 40.564C235.36 41.4693 235.813 42.31 235.813 43.086V44.444C235.425 45.3493 235.166 45.802 235.037 45.802L236.007 48.906C235.102 49.682 234.649 50.1347 234.649 50.264L235.231 51.816C235.36 51.9453 235.425 52.204 235.425 52.592C235.425 52.8507 235.296 53.368 235.037 54.144C235.166 54.2733 235.231 54.5967 235.231 55.114L235.037 55.308L235.231 56.472C235.619 56.86 235.878 57.248 236.007 57.636L235.619 59.964L234.067 60.352C234.196 60.8693 234.455 60.934 234.843 60.546C235.619 61.0633 236.007 61.71 236.007 62.486L235.619 64.232C235.231 65.1373 235.037 65.7193 235.037 65.978C235.296 66.1073 235.49 66.3013 235.619 66.56C235.878 66.8187 236.136 67.0773 236.395 67.336C236.395 67.8533 236.136 68.306 235.619 68.694C234.843 69.47 234.39 70.052 234.261 70.44C235.166 71.0867 235.684 71.992 235.813 73.156C235.942 73.544 235.942 74.3847 235.813 75.678L236.007 76.648C236.136 77.036 236.201 77.3593 236.201 77.618V79.364C236.201 80.2693 236.201 81.1747 236.201 82.08C236.33 82.9853 236.46 83.9553 236.589 84.99C236.589 85.6367 236.46 86.348 236.201 87.124C236.33 87.3827 236.395 87.7707 236.395 88.288C236.395 89.064 236.136 89.7107 235.619 90.228C234.972 91.1333 234.649 91.6507 234.649 91.78C234.649 92.168 234.843 92.556 235.231 92.944C235.231 92.944 235.037 93.2673 234.649 93.914C234.132 94.4313 233.873 94.8193 233.873 95.078C234.132 95.3367 234.326 95.466 234.455 95.466C234.584 95.466 234.843 95.272 235.231 94.884C235.619 94.884 235.942 95.0133 236.201 95.272L236.395 106.912L236.201 109.046L236.007 110.016L235.425 110.986C235.037 111.374 234.843 111.633 234.843 111.762C235.102 112.279 235.36 112.667 235.619 112.926C236.136 113.831 236.395 114.801 236.395 115.836C236.395 116.353 236.201 117.129 235.813 118.164H234.843L232.903 117.388C232.386 117.388 231.416 117.905 229.993 118.94ZM225.725 38.236V37.266C225.596 37.1367 225.337 37.072 224.949 37.072L224.561 37.654L224.755 38.236H225.725ZM228.247 53.562C228.764 53.562 229.476 53.3033 230.381 52.786L231.351 51.622C231.351 52.01 231.48 52.3333 231.739 52.592C232.386 52.3333 232.709 51.9453 232.709 51.428C232.709 50.652 232.386 50.264 231.739 50.264L230.769 50.458C230.252 49.1647 229.67 48.518 229.023 48.518C228.764 48.906 228.441 49.2293 228.053 49.488C227.536 50.3933 227.212 51.2987 227.083 52.204C227.083 53.1093 227.471 53.562 228.247 53.562ZM224.755 68.694C225.014 68.694 225.272 68.5647 225.531 68.306C225.531 68.1767 225.402 67.9827 225.143 67.724C225.143 68.112 225.014 68.4353 224.755 68.694ZM228.247 74.126C228.894 73.8673 229.282 73.4793 229.411 72.962L228.441 72.186C227.924 72.574 227.859 73.2207 228.247 74.126ZM217.383 75.096C217.642 75.096 217.9 74.9667 218.159 74.708C218.418 74.4493 218.353 74.1907 217.965 73.932C217.577 73.932 217.383 74.32 217.383 75.096ZM227.083 86.93C227.212 86.6713 227.148 86.4127 226.889 86.154C226.76 86.0247 226.436 86.0893 225.919 86.348C226.178 86.736 226.566 86.93 227.083 86.93ZM226.501 112.344C227.018 112.344 227.536 112.085 228.053 111.568C228.053 110.921 227.6 110.598 226.695 110.598C226.566 110.727 226.372 111.245 226.113 112.15C226.242 112.279 226.372 112.344 226.501 112.344ZM252.13 146.876C251.742 146.876 251.096 146.617 250.19 146.1L249.414 131.162C249.802 130.774 250.126 129.545 250.384 127.476L250.772 126.894C251.16 126.506 251.354 126.118 251.354 125.73C251.354 125.213 251.096 124.954 250.578 124.954L249.802 124.76C249.156 123.855 248.897 122.885 249.026 121.85C249.285 121.591 249.608 121.397 249.996 121.268C250.384 121.009 250.578 120.815 250.578 120.686L249.414 111.762L248.638 109.24C248.768 108.981 248.832 108.658 248.832 108.27C248.832 107.882 248.897 107.429 249.026 106.912L250.384 106.718V106.136C249.738 106.136 249.156 105.877 248.638 105.36C248.768 105.101 248.897 104.843 249.026 104.584C249.156 104.196 249.285 103.743 249.414 103.226L248.444 98.764L247.862 93.332L248.444 91.78L248.832 90.228C248.315 89.7107 247.992 89.064 247.862 88.288L247.668 83.438L248.056 82.662C248.315 82.1447 248.38 81.8213 248.25 81.692C247.862 80.916 247.474 79.946 247.086 78.782V76.842C247.216 76.7127 247.539 76.5833 248.056 76.454C248.315 75.678 248.444 75.096 248.444 74.708C248.186 74.32 247.927 73.8673 247.668 73.35L247.474 71.022C247.345 70.3753 247.28 69.858 247.28 69.47C247.28 69.082 247.28 68.7587 247.28 68.5C247.41 68.3707 247.474 67.918 247.474 67.142C247.474 67.142 247.345 66.948 247.086 66.56C247.086 65.6547 247.474 64.5553 248.25 63.262C249.285 61.8393 249.802 60.9987 249.802 60.74C249.802 59.964 249.35 59.0587 248.444 58.024L248.25 57.83H247.668C247.539 57.1833 247.41 56.5367 247.28 55.89C247.28 55.2433 247.216 54.6613 247.086 54.144C246.44 52.98 246.181 52.204 246.31 51.816L246.504 49.488L246.31 48.712L246.698 46.966L245.728 44.638C245.728 43.862 246.116 43.28 246.892 42.892C246.892 42.504 246.634 42.0513 246.116 41.534C246.246 41.2753 246.31 40.4993 246.31 39.206L245.146 34.162C245.146 32.7393 245.599 32.028 246.504 32.028L247.474 32.222C247.604 32.7393 248.509 33.1273 250.19 33.386L251.548 34.744C252.324 34.744 252.777 33.968 252.906 32.416C253.294 32.5453 254.264 32.61 255.816 32.61L256.98 32.416L257.756 33.774H258.338C258.468 33.774 258.92 33.386 259.696 32.61C260.084 32.7393 260.343 32.998 260.472 33.386C260.731 34.162 260.925 34.6147 261.054 34.744C261.96 34.0973 262.283 33.2567 262.024 32.222L265.128 32.028C265.904 32.028 266.357 32.416 266.486 33.192C266.745 33.968 267.392 34.356 268.426 34.356C269.461 34.0973 270.172 33.58 270.56 32.804C270.819 32.028 271.401 31.64 272.306 31.64H273.664C274.182 31.7693 274.634 31.834 275.022 31.834C275.281 31.7047 275.54 31.5753 275.798 31.446C276.186 31.3167 276.639 31.1873 277.156 31.058L279.484 31.446C279.743 31.3167 280.066 31.1873 280.454 31.058C280.842 30.9287 281.295 30.7993 281.812 30.67C282.2 30.67 282.912 30.9933 283.946 31.64C284.076 32.5453 284.399 32.998 284.916 32.998C285.046 32.998 285.175 32.9333 285.304 32.804C285.304 32.6747 285.434 32.61 285.692 32.61H287.244C286.986 32.61 287.115 32.998 287.632 33.774C288.02 34.55 288.602 34.8733 289.378 34.744C289.508 34.8733 289.702 35.0673 289.96 35.326C290.219 35.4553 290.478 35.7787 290.736 36.296C290.995 37.072 291.254 37.7187 291.512 38.236L293.258 39.982C293.776 40.6287 294.034 41.34 294.034 42.116L293.84 43.086V44.444C292.547 45.3493 291.9 45.996 291.9 46.384C292.159 47.0307 292.418 47.2893 292.676 47.16L293.258 46.966C294.422 46.966 295.069 47.8067 295.198 49.488C295.198 49.876 294.94 50.3287 294.422 50.846V54.144C294.681 54.4027 294.875 54.726 295.004 55.114C295.134 55.3727 295.328 55.696 295.586 56.084C295.457 56.2133 295.198 56.666 294.81 57.442V58.412C294.81 59.0587 295.004 59.7053 295.392 60.352L295.586 62.874L295.974 65.784L295.392 71.798C295.392 72.0567 295.651 72.5093 296.168 73.156C296.556 73.932 296.75 74.4493 296.75 74.708L296.362 82.274L296.168 82.08C295.134 82.08 294.616 82.5327 294.616 83.438C294.616 84.214 295.004 84.602 295.78 84.602L296.168 84.408L296.944 89.064C296.944 88.9347 296.88 88.87 296.75 88.87C296.75 88.87 296.686 88.9993 296.556 89.258C296.556 89.5167 296.492 89.9693 296.362 90.616C296.362 90.7453 296.362 90.8747 296.362 91.004C296.492 91.004 296.556 91.0687 296.556 91.198C296.556 91.7153 296.362 92.4913 295.974 93.526L296.944 94.108V96.63L297.526 97.988L296.944 98.764C296.944 99.2813 296.944 99.9927 296.944 100.898C296.944 101.674 296.88 102.579 296.75 103.614C296.75 103.614 296.556 103.937 296.168 104.584C295.78 105.101 295.586 105.425 295.586 105.554C295.716 105.683 295.91 106.007 296.168 106.524C296.427 106.912 296.556 107.235 296.556 107.494C295.651 108.141 294.94 108.917 294.422 109.822C294.293 110.339 294.099 110.986 293.84 111.762C293.711 112.409 293.452 113.249 293.064 114.284C292.806 114.801 292.159 115.319 291.124 115.836C289.831 116.224 289.12 116.871 288.99 117.776L288.02 117.582C287.503 117.711 286.856 117.905 286.08 118.164C285.434 118.423 284.722 118.681 283.946 118.94C283.558 118.681 282.976 118.487 282.2 118.358C282.071 118.358 281.683 118.681 281.036 119.328C280.519 119.845 280.196 120.104 280.066 120.104C279.937 120.104 279.743 119.975 279.484 119.716C279.226 119.457 279.032 119.328 278.902 119.328L278.514 119.522H277.932L277.156 119.134C276.639 118.617 276.316 118.358 276.186 118.358C275.41 117.97 274.376 117.776 273.082 117.776C272.436 116.483 271.207 115.965 269.396 116.224C269.267 115.965 268.75 116.289 267.844 117.194L269.59 120.88C269.332 121.009 269.008 121.203 268.62 121.462C268.362 121.721 267.974 121.979 267.456 122.238C267.456 122.367 267.78 122.755 268.426 123.402C268.426 123.531 268.362 123.661 268.232 123.79C268.232 123.919 268.232 124.113 268.232 124.372C268.232 125.277 268.75 126.377 269.784 127.67L270.56 139.698C270.431 139.827 270.366 140.28 270.366 141.056C270.366 141.961 270.302 143.125 270.172 144.548V144.354C270.172 144.354 269.978 145.001 269.59 146.294L268.426 145.906C268.297 145.906 268.168 145.971 268.038 146.1L267.456 146.294C267.198 146.294 266.81 146.035 266.292 145.518H265.322L263.77 145.906L262.412 146.294C262.283 146.294 262.154 146.229 262.024 146.1C261.895 146.1 261.701 146.035 261.442 145.906C260.796 145.647 260.408 145.583 260.278 145.712L259.89 145.906H259.502C259.373 145.906 258.92 145.777 258.144 145.518L256.98 144.936C256.851 144.936 256.528 145.195 256.01 145.712C255.493 146.229 255.04 146.488 254.652 146.488L252.13 146.876ZM284.14 41.146C284.27 40.8873 284.205 40.6287 283.946 40.37C283.817 40.2407 283.494 40.3053 282.976 40.564C283.235 40.952 283.623 41.146 284.14 41.146ZM260.666 46.966C260.796 46.8367 260.666 46.6427 260.278 46.384C260.02 46.384 259.826 46.4487 259.696 46.578L260.666 46.966ZM268.814 105.942L269.59 105.554C271.401 104.519 272.824 104.002 273.858 104.002C274.505 104.002 275.022 104.261 275.41 104.778C275.798 105.037 276.316 105.037 276.962 104.778V104.002C277.221 102.191 277.221 100.316 276.962 98.376C277.868 97.8587 278.32 97.018 278.32 95.854C278.32 94.9487 278.062 94.0433 277.544 93.138C277.027 92.2327 276.833 91.7153 276.962 91.586C277.35 90.5513 277.544 89.9693 277.544 89.84L276.38 87.706C276.38 83.6967 276.251 81.5627 275.992 81.304C276.251 80.14 276.833 79.558 277.738 79.558L278.708 80.14L279.678 79.946V78.976C279.032 78.976 278.644 78.7173 278.514 78.2C278.385 77.812 278.126 77.424 277.738 77.036C277.221 76.7773 276.833 76.5187 276.574 76.26C276.445 75.872 276.251 74.708 275.992 72.768V71.41C275.992 69.5993 276.186 68.5 276.574 68.112C276.445 67.9827 276.251 67.53 275.992 66.754L275.798 60.74C275.928 60.2227 275.992 59.576 275.992 58.8C276.122 57.8947 276.122 56.9247 275.992 55.89L276.38 55.308L275.798 54.726C275.798 54.4673 275.734 54.2087 275.604 53.95C275.604 53.6913 275.54 53.368 275.41 52.98C275.669 51.816 275.604 50.9753 275.216 50.458L271.142 47.16C271.401 47.936 271.401 48.4533 271.142 48.712L270.56 48.906L269.978 47.548C269.72 47.4187 269.396 47.354 269.008 47.354C268.75 47.354 268.362 47.2893 267.844 47.16C268.103 47.936 268.232 48.4533 268.232 48.712C268.232 49.488 267.909 50.1993 267.262 50.846H266.68C265.387 50.846 264.611 51.234 264.352 52.01V52.786C264.352 53.174 264.352 53.6913 264.352 54.338C264.352 54.9847 264.417 55.7607 264.546 56.666C264.676 59.5113 264.934 60.934 265.322 60.934L265.516 60.74C265.646 60.8693 265.84 60.934 266.098 60.934C266.357 60.934 266.616 60.9987 266.874 61.128C266.745 61.516 266.68 62.0333 266.68 62.68C266.68 63.1973 266.68 63.844 266.68 64.62L267.262 67.918C267.392 68.0473 267.327 68.306 267.068 68.694L266.68 69.664L267.262 71.022L267.068 72.768L267.456 75.484L268.038 76.648C268.038 76.7773 267.974 77.1007 267.844 77.618C267.715 78.1353 267.521 78.8467 267.262 79.752L267.456 86.736C267.715 86.9947 267.909 87.318 268.038 87.706C268.297 87.9647 268.491 88.288 268.62 88.676L268.426 89.064C268.297 89.1933 268.232 89.3873 268.232 89.646C268.103 90.034 268.038 90.616 268.038 91.392C268.038 92.168 268.168 93.0733 268.426 94.108L268.814 95.66C268.685 95.9187 268.556 96.242 268.426 96.63C268.297 97.018 268.168 97.4707 268.038 97.988L267.844 99.54C267.844 99.7987 267.715 100.057 267.456 100.316C267.456 100.575 267.586 100.963 267.844 101.48C267.844 101.609 267.78 101.674 267.65 101.674C267.521 101.674 267.456 101.803 267.456 102.062C267.456 102.321 267.586 102.45 267.844 102.45L267.65 103.032C267.65 103.291 267.65 103.614 267.65 104.002C267.65 104.261 267.715 104.649 267.844 105.166C267.974 105.683 268.297 105.942 268.814 105.942ZM261.054 50.07C261.184 49.8113 261.119 49.5527 260.86 49.294C260.731 49.1647 260.408 49.2293 259.89 49.488C260.149 49.876 260.537 50.07 261.054 50.07ZM295.586 56.278V56.084C295.586 56.084 295.586 56.1487 295.586 56.278ZM290.736 85.96L291.512 85.572L291.124 84.99C290.995 85.1193 290.93 85.2487 290.93 85.378C290.93 85.5073 290.866 85.7013 290.736 85.96ZM283.558 92.556C283.817 92.556 284.076 92.4267 284.334 92.168C284.464 92.0387 284.399 91.78 284.14 91.392C283.752 91.5213 283.558 91.9093 283.558 92.556ZM293.646 104.196C293.646 103.808 293.517 103.485 293.258 103.226C293 102.967 292.741 103.097 292.482 103.614C292.741 104.002 293.129 104.196 293.646 104.196ZM255.622 115.448C256.14 114.931 256.334 114.607 256.204 114.478L256.98 114.866C257.368 114.866 257.692 114.543 257.95 113.896C257.304 112.861 256.398 112.344 255.234 112.344C254.458 112.344 254.07 112.861 254.07 113.896L254.652 115.448H255.622ZM253.294 119.522C253.424 119.263 253.359 119.005 253.1 118.746C252.971 118.617 252.648 118.681 252.13 118.94C252.389 119.328 252.777 119.522 253.294 119.522ZM333.942 119.91L330.644 119.716C329.61 119.587 328.769 119.522 328.122 119.522C327.605 119.522 327.282 119.522 327.152 119.522C325.212 119.522 324.048 119.457 323.66 119.328L320.362 117.582C320.104 117.453 319.78 117.323 319.392 117.194C319.004 117.065 318.552 116.935 318.034 116.806C317.258 116.418 316.87 115.771 316.87 114.866C316.612 114.737 316.353 114.672 316.094 114.672C315.836 114.543 315.577 114.478 315.318 114.478C315.318 113.314 315.06 112.538 314.542 112.15L313.184 111.568C312.926 111.309 312.602 110.598 312.214 109.434L311.438 107.494V106.912C311.438 106.653 311.374 106.33 311.244 105.942C311.244 105.425 311.18 104.907 311.05 104.39C311.05 103.355 311.05 102.45 311.05 101.674C311.18 100.898 311.309 100.251 311.438 99.734C310.921 99.4753 310.533 99.0873 310.274 98.57C310.145 98.3113 310.21 97.794 310.468 97.018L310.662 95.272C310.792 94.6253 310.856 94.0433 310.856 93.526C310.856 93.0087 310.921 92.4913 311.05 91.974C311.05 91.3273 311.244 90.5513 311.632 89.646C312.15 88.7407 312.408 88.1587 312.408 87.9C312.408 87.7707 312.279 87.5767 312.02 87.318C311.762 87.0593 311.632 86.93 311.632 86.93C311.632 86.6713 311.568 86.4773 311.438 86.348C311.438 86.2187 311.438 86.0893 311.438 85.96C311.438 85.184 311.632 84.408 312.02 83.632C311.503 82.7267 311.244 81.6273 311.244 80.334C311.244 79.2993 311.568 78.3293 312.214 77.424C311.826 76.9067 311.503 76.3893 311.244 75.872V70.828C311.244 70.828 311.115 70.5693 310.856 70.052C310.598 69.7933 310.468 69.5347 310.468 69.276C310.468 68.888 311.18 67.4653 312.602 65.008C311.568 64.3613 311.05 63.9733 311.05 63.844L312.02 60.352C312.02 60.0933 311.956 59.7053 311.826 59.188C311.826 58.6707 311.826 58.0887 311.826 57.442L311.632 54.338C311.503 52.9153 311.503 51.7513 311.632 50.846C311.762 49.9407 311.762 49.2293 311.632 48.712C311.244 48.0653 310.792 47.742 310.274 47.742V46.772L312.02 45.996C312.02 45.7373 311.956 45.5433 311.826 45.414H308.528V45.996C308.528 46.5133 308.787 46.966 309.304 47.354C309.822 47.742 310.08 48.0653 310.08 48.324L307.752 48.13C307.235 48.0007 306.782 47.936 306.394 47.936C306.136 47.936 305.942 47.936 305.812 47.936L304.648 48.324C303.872 48.5827 303.484 48.712 303.484 48.712C302.967 48.712 302.191 48.4533 301.156 47.936C301.027 47.6773 301.027 47.2893 301.156 46.772L301.544 45.608C301.415 45.22 301.35 44.832 301.35 44.444C301.35 44.056 301.35 43.7327 301.35 43.474C301.609 42.698 302.062 42.2453 302.708 42.116C302.191 41.5987 301.868 41.0813 301.738 40.564C301.738 39.9173 301.738 39.2707 301.738 38.624L301.544 37.654C301.803 36.49 301.868 35.7787 301.738 35.52L301.156 34.55C300.898 34.0327 300.768 33.7093 300.768 33.58L301.544 31.834C301.674 31.7047 301.868 31.64 302.126 31.64C302.385 31.64 302.708 31.5753 303.096 31.446C303.484 31.3167 303.743 31.058 303.872 30.67H304.26L306.2 31.252L308.722 32.028C308.852 32.1573 308.981 32.3513 309.11 32.61C309.24 32.8687 309.369 33.192 309.498 33.58C310.016 33.192 310.533 32.6747 311.05 32.028C311.568 31.3813 312.085 30.6053 312.602 29.7C313.378 29.1827 313.443 28.7947 312.796 28.536C312.408 28.2773 312.214 27.8893 312.214 27.372L312.408 21.164C311.762 18.836 311.438 17.2193 311.438 16.314L312.02 14.762L312.408 13.21C312.408 12.822 312.214 12.4987 311.826 12.24C311.438 11.9813 311.244 11.464 311.244 10.688L311.632 8.74799C311.891 8.61866 312.15 8.42466 312.408 8.16599C312.667 7.90733 313.055 7.58399 313.572 7.19599C314.348 6.41999 314.801 6.03199 314.93 6.03199L316.676 6.808C317.194 6.93733 317.582 7.13133 317.84 7.39C318.099 7.64866 318.293 7.778 318.422 7.778L319.004 7.584H323.272C324.178 7.584 324.889 7.64866 325.406 7.778C326.053 7.778 326.57 7.778 326.958 7.778L328.316 7.39C329.092 7.13133 329.48 7.00199 329.48 7.00199C330.386 7.00199 330.838 7.64866 330.838 8.94199C330.838 9.32999 330.774 9.84733 330.644 10.494C330.644 11.0113 330.58 11.658 330.45 12.434L329.674 12.24C329.157 12.24 328.51 12.4987 327.734 13.016C326.57 13.6627 326.118 14.5033 326.376 15.538C326.635 15.7967 326.764 15.926 326.764 15.926C326.894 15.926 327.152 15.732 327.54 15.344C328.058 15.0853 328.381 14.956 328.51 14.956C329.157 14.956 329.804 15.4733 330.45 16.508C330.968 17.4133 331.226 17.9953 331.226 18.254C331.226 18.5127 331.097 18.836 330.838 19.224C330.709 19.4827 330.58 19.6767 330.45 19.806C330.321 22.0047 330.192 23.5567 330.062 24.462C330.062 25.3673 330.062 25.5613 330.062 25.044C329.157 25.1733 328.704 25.5613 328.704 26.208C328.704 26.8547 329.092 27.3073 329.868 27.566V28.73C329.868 29.506 330.192 30.864 330.838 32.804C330.968 33.0627 331.42 33.4507 332.196 33.968H332.778V32.61C332.908 32.0927 333.296 31.834 333.942 31.834C336.529 31.446 337.628 31.252 337.24 31.252L338.21 31.446C338.598 31.5753 338.986 31.64 339.374 31.64L341.314 32.998C341.185 33.5153 341.12 34.0327 341.12 34.55C341.12 34.938 341.12 35.4553 341.12 36.102C342.155 37.1367 342.672 37.5893 342.672 37.46C342.672 37.848 342.414 38.3007 341.896 38.818C342.026 38.9473 342.155 39.0767 342.284 39.206C342.026 39.3353 341.832 39.8527 341.702 40.758L341.896 41.34C342.026 41.5987 342.09 41.8573 342.09 42.116C342.09 43.1507 342.026 44.1853 341.896 45.22C341.896 46.1253 341.832 46.966 341.702 47.742C341.444 48.518 341.056 48.906 340.538 48.906H340.344H340.538C340.538 48.7767 339.956 48.518 338.792 48.13C338.275 48.0007 337.24 47.936 335.688 47.936C335.042 47.936 333.748 48.13 331.808 48.518L331.032 49.1C330.515 49.3587 330.256 49.488 330.256 49.488L330.062 51.234C329.933 52.5273 329.739 53.174 329.48 53.174C330.256 54.9847 330.644 56.666 330.644 58.218C330.515 58.218 330.192 58.994 329.674 60.546C329.804 60.2873 329.868 60.9987 329.868 62.68L329.48 63.65C329.222 64.426 329.092 64.814 329.092 64.814L329.674 67.142C329.933 67.7887 330.062 68.3707 330.062 68.888C330.062 69.276 330.062 69.5347 330.062 69.664C330.062 69.664 329.804 69.9873 329.286 70.634C329.157 70.634 329.092 70.9573 329.092 71.604C329.092 72.38 329.416 72.8973 330.062 73.156V79.558C330.062 79.6873 329.933 79.8813 329.674 80.14C329.416 80.6573 329.286 80.9807 329.286 81.11C329.157 82.0153 329.157 82.7913 329.286 83.438C329.545 84.4727 329.739 84.9253 329.868 84.796C329.48 85.184 329.157 85.572 328.898 85.96C329.157 86.2187 329.48 87.124 329.868 88.676C328.316 89.5813 327.54 90.3573 327.54 91.004C327.54 90.7453 328.058 91.5213 329.092 93.332C329.092 93.332 329.222 94.3667 329.48 96.436L329.868 97.018C329.868 97.5353 329.868 98.1173 329.868 98.764C329.868 99.2813 329.933 99.928 330.062 100.704C330.062 100.704 330.838 101.221 332.39 102.256C332.39 102.773 332.714 103.226 333.36 103.614H333.748C334.007 103.614 334.46 103.355 335.106 102.838C335.624 102.321 336.076 102.062 336.464 102.062C336.464 102.062 336.723 102.191 337.24 102.45C337.499 102.709 337.693 102.838 337.822 102.838C338.081 102.838 338.469 102.709 338.986 102.45C339.245 102.191 339.504 101.997 339.762 101.868C340.021 101.609 340.344 101.351 340.732 101.092L341.508 101.674V109.822C341.508 109.951 341.444 110.081 341.314 110.21C341.056 110.469 340.926 110.663 340.926 110.792V112.732C340.668 112.991 340.409 113.185 340.15 113.314C340.28 114.219 340.538 114.931 340.926 115.448C341.314 115.836 341.508 116.418 341.508 117.194C341.508 118.487 340.797 119.134 339.374 119.134H338.792C338.663 119.134 338.534 119.069 338.404 118.94C338.404 118.94 338.34 118.94 338.21 118.94L336.076 119.522C335.43 119.651 334.912 119.716 334.524 119.716C334.266 119.845 334.072 119.91 333.942 119.91ZM318.228 37.46C319.004 37.46 319.392 37.072 319.392 36.296L319.004 35.132H318.034C317.646 35.52 317.323 35.8433 317.064 36.102C316.935 36.3607 316.806 36.5547 316.676 36.684C316.806 36.8133 316.87 37.0073 316.87 37.266H317.646C317.776 37.266 317.84 37.3307 317.84 37.46C317.97 37.46 318.099 37.46 318.228 37.46ZM337.24 37.072L338.016 36.684L337.046 36.102C336.917 36.2313 336.788 36.296 336.658 36.296L337.24 37.072ZM342.284 39.206V39.594C342.284 39.4647 342.284 39.3353 342.284 39.206ZM322.108 41.922C322.238 41.7927 322.108 41.534 321.72 41.146L321.138 41.534C321.268 41.6633 321.397 41.728 321.526 41.728C321.785 41.728 321.979 41.7927 322.108 41.922ZM322.302 45.026C322.432 44.7673 322.367 44.5087 322.108 44.25C321.85 43.9913 321.526 43.9913 321.138 44.25C321.268 44.5087 321.656 44.7673 322.302 45.026ZM330.644 58.218V58.412V58.218ZM325.018 78.006L325.406 77.812C325.536 77.6827 325.665 77.618 325.794 77.618L325.406 77.036C325.277 77.1653 325.212 77.2947 325.212 77.424C325.212 77.5533 325.148 77.7473 325.018 78.006ZM317.452 84.214C317.711 84.3433 317.97 84.2787 318.228 84.02C318.487 83.7613 318.422 83.438 318.034 83.05C317.646 83.1793 317.452 83.5673 317.452 84.214ZM315.9 108.658L316.87 109.628C317.129 109.628 317.582 109.563 318.228 109.434L319.198 108.27L317.84 107.106C317.711 107.235 317.064 107.494 315.9 107.882V108.658ZM310.856 114.09C310.598 114.09 310.274 113.896 309.886 113.508C310.016 113.379 310.21 113.314 310.468 113.314C310.856 113.314 310.986 113.573 310.856 114.09ZM364.916 118.164L362.2 117.388C361.941 117.388 361.618 117.453 361.23 117.582L360.066 117.776C359.936 117.776 359.613 117.647 359.096 117.388L358.32 117C358.19 117 358.126 117.065 358.126 117.194H357.738C356.962 117.065 356.509 116.741 356.38 116.224V114.09C356.38 113.573 356.186 112.732 355.798 111.568L357.156 110.598C356.897 109.822 356.768 109.24 356.768 108.852C355.992 107.559 355.539 107.106 355.41 107.494C355.668 106.589 356.121 106.071 356.768 105.942C357.414 105.683 357.738 105.037 357.738 104.002V103.032L355.992 104.196C355.216 103.679 354.892 101.997 355.022 99.152C355.151 97.8587 355.151 96.824 355.022 96.048L354.052 94.108C354.052 93.72 354.052 93.2673 354.052 92.75C354.052 92.1033 353.987 91.392 353.858 90.616C353.987 90.4867 354.181 90.1633 354.44 89.646C355.086 88.482 355.28 87.7707 355.022 87.512L352.888 80.722C352.888 79.946 353.082 79.4933 353.47 79.364C354.375 78.7173 354.892 78.2647 355.022 78.006H353.47C352.564 77.7473 352.047 76.9713 351.918 75.678C351.788 75.1607 351.724 74.708 351.724 74.32C351.724 73.932 351.724 73.4793 351.724 72.962L351.142 70.246L350.366 68.694C350.366 68.1767 350.366 67.0773 350.366 65.396C350.366 63.5853 350.301 61.1927 350.172 58.218L349.784 57.636C349.913 57.3773 349.978 56.7953 349.978 55.89L348.426 55.114C348.684 53.6913 348.878 52.398 349.008 51.234C349.137 49.9407 349.266 48.6473 349.396 47.354C349.137 47.2247 348.878 46.3193 348.62 44.638C348.361 43.2153 348.232 42.504 348.232 42.504L347.262 42.698V41.922C347.65 41.6633 347.973 41.2107 348.232 40.564C348.232 40.3053 347.908 39.012 347.262 36.684C347.132 36.296 346.874 36.102 346.486 36.102L346.68 35.326C346.938 34.8087 347.003 34.4853 346.874 34.356C346.227 33.968 345.839 33.5153 345.71 32.998C345.322 31.5753 345.192 30.67 345.322 30.282C345.322 28.9887 345.71 28.342 346.486 28.342L349.202 29.7H350.172L351.53 29.894C351.788 29.894 352.112 29.894 352.5 29.894C352.888 29.894 353.34 29.9587 353.858 30.088L355.41 30.67C355.539 30.67 355.992 30.476 356.768 30.088C357.544 29.7 358.061 29.506 358.32 29.506L360.066 30.088C361.1 30.476 361.682 30.67 361.812 30.67L364.722 30.476C364.851 30.7347 364.786 31.1873 364.528 31.834L364.14 32.61C364.14 32.7393 364.14 32.998 364.14 33.386C364.269 33.6447 364.398 33.968 364.528 34.356C364.657 34.8733 364.722 35.326 364.722 35.714C364.722 35.9727 364.722 36.2313 364.722 36.49C364.722 37.266 364.528 37.848 364.14 38.236L365.304 44.444C365.045 44.5733 364.334 44.638 363.17 44.638C362.394 45.1553 362.006 45.7373 362.006 46.384C362.006 47.16 362.523 47.936 363.558 48.712C363.816 48.9707 364.01 49.1 364.14 49.1L364.722 48.712C364.851 48.5827 365.045 48.518 365.304 48.518C365.562 48.7767 365.692 49.1 365.692 49.488L365.304 50.846C365.692 51.234 365.95 51.816 366.08 52.592L365.886 53.756C365.756 54.144 365.692 54.532 365.692 54.92L366.662 55.89C366.662 56.1487 366.532 56.4073 366.274 56.666H365.692C365.045 56.666 364.334 56.86 363.558 57.248C363.558 57.5067 363.558 57.7653 363.558 58.024C363.687 58.2827 363.816 58.5413 363.946 58.8L364.722 58.994C364.851 58.994 365.045 58.8647 365.304 58.606H366.08C366.08 59.1233 366.015 59.5113 365.886 59.77L365.498 60.546L366.468 63.65L367.438 65.59C367.826 66.1073 368.02 66.56 368.02 66.948C368.02 67.0773 367.89 67.2713 367.632 67.53C367.244 67.6593 367.05 67.8533 367.05 68.112L367.826 69.664C368.084 69.9227 368.343 70.5047 368.602 71.41L369.572 69.858C369.572 69.5993 369.766 69.276 370.154 68.888C371.447 68.7587 372.094 68.3707 372.094 67.724C371.964 67.724 371.9 67.6593 371.9 67.53V66.56C372.158 66.0427 372.417 65.5253 372.676 65.008C373.064 64.4907 373.387 63.9733 373.646 63.456L373.258 61.71L372.87 60.158L374.422 58.412V55.696L375.392 52.786C375.392 52.786 375.262 52.6567 375.004 52.398C375.004 51.234 375.392 49.6173 376.168 47.548L376.362 46.384L377.526 45.026V39.788C378.172 39.4 378.496 39.0767 378.496 38.818V34.356C378.625 32.2867 379.336 31.252 380.63 31.252C382.699 31.252 383.734 31.834 383.734 32.998L384.316 33.192C384.445 32.804 384.962 32.2867 385.868 31.64C385.868 31.64 386.385 31.9633 387.42 32.61C388.454 33.2567 388.972 33.58 388.972 33.58C389.36 33.7093 389.877 33.58 390.524 33.192C391.041 32.9333 391.3 32.804 391.3 32.804L392.27 32.998C392.658 32.998 393.046 32.9333 393.434 32.804L394.404 32.61C394.662 32.61 394.986 32.6747 395.374 32.804L396.15 33.192C396.408 33.192 396.602 33.1273 396.732 32.998L397.314 32.804C398.219 32.804 398.607 33.6447 398.478 35.326C398.348 35.4553 398.154 35.714 397.896 36.102C397.637 36.49 397.378 36.9427 397.12 37.46L395.762 41.728C395.374 41.8573 395.115 42.1807 394.986 42.698V45.026C394.468 45.2847 394.016 45.608 393.628 45.996L394.016 46.772C394.145 47.0307 394.21 47.2893 394.21 47.548L394.404 50.264C394.274 51.04 393.822 51.428 393.046 51.428C392.787 51.428 392.464 51.1693 392.076 50.652C391.17 51.1693 390.718 51.7513 390.718 52.398C390.718 52.9153 391.3 53.6913 392.464 54.726C391.817 55.7607 391.558 56.278 391.688 56.278C390.912 56.278 390.524 56.472 390.524 56.86C390.524 57.248 390.912 57.7653 391.688 58.412L390.912 60.934C390.653 60.934 390.394 61.128 390.136 61.516L388.778 63.844L389.942 67.724C389.942 68.3707 389.812 68.9527 389.554 69.47C389.166 70.3753 388.519 70.8927 387.614 71.022C386.838 71.1513 386.256 71.41 385.868 71.798C385.868 71.798 385.738 72.2507 385.48 73.156C385.35 73.544 385.156 73.738 384.898 73.738H383.734C383.734 74.126 383.863 74.32 384.122 74.32C384.122 74.1907 384.316 74.126 384.704 74.126C385.221 74.126 385.48 74.32 385.48 74.708L385.286 75.484C385.156 75.7427 385.092 76.066 385.092 76.454C385.092 76.9713 385.415 77.424 386.062 77.812L385.868 78.394L385.286 78.976C385.286 80.2693 384.833 81.8213 383.928 83.632C383.928 83.8907 383.863 84.214 383.734 84.602C383.734 84.99 383.669 85.4427 383.54 85.96C383.152 86.348 382.764 86.93 382.376 87.706C382.634 88.3527 382.634 89.3873 382.376 90.81C382.246 90.9393 382.117 91.0687 381.988 91.198C381.858 91.198 381.729 91.3273 381.6 91.586C380.824 91.3273 380.242 91.198 379.854 91.198C379.078 91.198 378.69 91.392 378.69 91.78C378.69 92.2973 379.466 92.8793 381.018 93.526L380.824 94.496C380.824 95.0133 380.436 95.4013 379.66 95.66C378.625 95.9187 378.043 96.3713 377.914 97.018C378.302 97.018 378.754 97.212 379.272 97.6C380.048 98.6347 380.371 99.54 380.242 100.316L379.078 101.868C379.078 102.515 379.013 103.032 378.884 103.42C378.496 103.549 377.978 104.131 377.332 105.166C377.073 105.683 376.814 106.136 376.556 106.524C376.426 106.783 376.232 107.041 375.974 107.3C375.715 106.783 375.392 106.395 375.004 106.136C374.098 106.136 373.646 106.524 373.646 107.3L374.034 109.24L375.392 107.688C376.297 107.817 376.75 108.27 376.75 109.046C376.75 110.081 376.814 110.792 376.944 111.18C376.556 111.309 376.038 111.568 375.392 111.956C374.874 112.215 374.292 112.603 373.646 113.12V113.508C374.163 113.508 374.68 113.896 375.198 114.672C375.586 115.319 375.715 115.901 375.586 116.418C375.456 116.677 374.874 117.129 373.84 117.776C372.546 118.035 371.188 118.164 369.766 118.164C368.343 118.293 366.726 118.293 364.916 118.164ZM360.648 34.55C360.648 34.2913 360.518 34.0327 360.26 33.774C360.13 33.6447 359.872 33.7093 359.484 33.968C359.484 34.356 359.872 34.55 360.648 34.55ZM393.822 36.684L394.598 36.296C394.598 36.0373 394.533 35.8433 394.404 35.714C394.274 35.8433 394.08 36.1667 393.822 36.684ZM352.5 41.34C352.629 41.0813 352.564 40.8227 352.306 40.564C352.047 40.3053 351.788 40.3053 351.53 40.564C351.53 40.8227 351.853 41.0813 352.5 41.34ZM385.868 42.31C386.256 42.4393 386.579 42.3747 386.838 42.116C386.967 41.9867 386.902 41.6633 386.644 41.146C386.385 41.2753 386.126 41.6633 385.868 42.31ZM378.69 62.098C378.56 61.9687 378.496 61.5807 378.496 60.934L377.332 61.128L377.526 62.098H378.69ZM357.932 70.634C358.708 70.634 359.29 70.3753 359.678 69.858C360.066 69.082 360.454 68.694 360.842 68.694C361.1 68.694 361.488 68.9527 362.006 69.47C362.523 69.9873 362.846 70.246 362.976 70.246C363.493 70.3753 363.946 70.1167 364.334 69.47C364.204 68.8233 363.816 68.2413 363.17 67.724L360.842 66.948C360.583 66.948 359.936 67.336 358.902 68.112L358.32 67.724C358.19 67.5947 357.996 67.53 357.738 67.53C357.35 67.53 357.091 67.5947 356.962 67.724C356.962 68.112 356.832 68.5647 356.574 69.082V69.276C356.574 70.052 357.026 70.5047 357.932 70.634ZM380.63 80.528C380.759 80.2693 380.694 80.0107 380.436 79.752C380.177 79.4933 379.918 79.4933 379.66 79.752C379.66 80.0107 379.983 80.2693 380.63 80.528ZM364.528 80.528V80.334L363.558 80.14V80.528H364.528ZM364.722 82.468L365.692 82.274L365.498 81.498C364.98 81.6273 364.722 81.9507 364.722 82.468ZM359.096 87.124L358.708 86.348C358.578 86.348 358.384 86.4773 358.126 86.736H358.514L359.096 87.124ZM371.512 100.51C372.934 100.122 373.904 99.928 374.422 99.928V98.958L372.87 98.57L371.512 99.734V100.51ZM361.618 114.866C361.1 113.961 360.648 113.508 360.26 113.508L359.678 114.09C359.807 114.607 360.454 114.866 361.618 114.866Z" fill="black"/>
</svg>
