<svg width="186" height="41" viewBox="0 0 186 41" fill="none" xmlns="http://www.w3.org/2000/svg">
<path d="M30.9629 6.63091V40.498H27.6758L9.79592 23.6143V40H0.482422V6.13281H3.76952L21.6494 23.3154V6.63091H30.9629ZM49.6655 13.8525C52.0562 13.8525 54.1812 14.3838 56.0405 15.4463C57.8999 16.5088 59.3443 18.0029 60.3736 19.9287C61.4361 21.8213 61.9673 24.0791 61.9673 26.7021V29.6406H44.6851C45.0503 30.8691 45.7808 31.7822 46.8765 32.3799C47.9722 32.9775 49.2339 33.2764 50.6616 33.2764C52.5874 33.2764 54.2476 33.0107 55.6421 32.4795C57.0698 31.915 58.1323 31.4336 58.8296 31.0352V38.3564C57.9663 38.8877 56.771 39.4189 55.2437 39.9502C53.7495 40.4814 52.0562 40.7471 50.1636 40.7471C48.3706 40.7471 46.6275 40.4482 44.9341 39.8506C43.2739 39.2529 41.7798 38.3896 40.4517 37.2607C39.1236 36.1318 38.0777 34.7705 37.314 33.1768C36.5503 31.5498 36.1685 29.7236 36.1685 27.6982C36.1685 25.1748 36.7495 22.8672 37.9116 20.7754C39.107 18.6836 40.7173 17.0068 42.7427 15.7451C44.8013 14.4834 47.1089 13.8525 49.6655 13.8525ZM49.4165 20.9248C48.3208 20.9248 47.3745 21.2236 46.5777 21.8213C45.7808 22.3857 45.1997 23.2656 44.8345 24.4609H53.8491C53.8491 23.2656 53.3843 22.3857 52.4546 21.8213C51.5581 21.2236 50.5454 20.9248 49.4165 20.9248ZM92.623 14.5996L83.16 27.25L93.121 40H82.563L77.7813 32.8281L73 40H62.4414L72.4024 27.25L62.9395 14.5996H72.6514L77.7813 21.8213L82.911 14.5996H92.623Z" fill="#E10419"/>
<path d="M107.192 7.12887V14.5996H113.866V21.3232H107.192V28.4453C107.192 29.6738 107.441 30.6533 107.939 31.3838C108.47 32.0811 109.201 32.4297 110.13 32.4297C111.591 32.4297 112.936 32.0645 114.165 31.334V38.0078C113.633 38.7383 112.787 39.3857 111.625 39.9502C110.496 40.4814 109.101 40.7471 107.441 40.7471C105.847 40.7471 104.386 40.3818 103.058 39.6514C101.73 38.9209 100.651 37.875 99.821 36.5137C99.024 35.1523 98.626 33.5088 98.626 31.583V21.3232H94.342V16.0938C95.969 15.6621 97.563 14.7324 99.124 13.3047C100.717 11.8438 101.879 9.78517 102.61 7.12887H107.192ZM134.511 13.8525C136.569 13.8525 138.462 14.3838 140.189 15.4463C141.948 16.4756 143.343 17.9863 144.372 19.9785C145.435 21.9707 145.966 24.3945 145.966 27.25C145.966 30.3047 145.451 32.8447 144.422 34.8701C143.393 36.8623 142.031 38.3398 140.338 39.3027C138.678 40.2656 136.901 40.7471 135.009 40.7471C133.183 40.7471 131.622 40.2656 130.327 39.3027C129.032 38.3398 128.069 37.1611 127.439 35.7666V40H118.872V4.14057H127.439V16.9404C128.269 16.0439 129.315 15.3135 130.576 14.749C131.871 14.1514 133.183 13.8525 134.511 13.8525ZM132.718 22.2197C131.788 22.2197 130.858 22.4189 129.929 22.8174C129.032 23.2158 128.202 23.7139 127.439 24.3115V26.752C127.439 27.9805 127.704 28.9932 128.235 29.79C128.8 30.5537 129.464 31.1348 130.228 31.5332C131.024 31.8984 131.772 32.0811 132.469 32.0811C133.83 32.0811 134.926 31.6162 135.756 30.6865C136.586 29.7568 137.001 28.6113 137.001 27.25C137.001 25.8887 136.603 24.71 135.806 23.7139C135.009 22.7178 133.98 22.2197 132.718 22.2197ZM156.799 0.355469C157.762 0.355469 158.642 0.58787 159.439 1.05267C160.269 1.51757 160.933 2.14837 161.431 2.94527C161.929 3.70897 162.178 4.57227 162.178 5.53517C162.178 6.46477 161.929 7.32807 161.431 8.12497C160.933 8.92187 160.269 9.55267 159.439 10.0176C158.642 10.4824 157.762 10.7148 156.799 10.7148C155.372 10.7148 154.127 10.2168 153.064 9.22067C152.002 8.19137 151.47 6.96287 151.47 5.53517C151.47 4.07417 152.002 2.84567 153.064 1.84957C154.127 0.853469 155.372 0.355469 156.799 0.355469ZM161.63 14.5996V40H153.064V21.5723H148.93V14.5996H161.63ZM178.988 7.12887V14.5996H185.662V21.3232H178.988V28.4453C178.988 29.6738 179.237 30.6533 179.735 31.3838C180.267 32.0811 180.997 32.4297 181.927 32.4297C183.388 32.4297 184.733 32.0645 185.961 31.334V38.0078C185.43 38.7383 184.583 39.3857 183.421 39.9502C182.292 40.4814 180.898 40.7471 179.237 40.7471C177.644 40.7471 176.183 40.3818 174.855 39.6514C173.526 38.9209 172.447 37.875 171.617 36.5137C170.82 35.1523 170.422 33.5088 170.422 31.583V21.3232H166.139V16.0938C167.766 15.6621 169.359 14.7324 170.92 13.3047C172.514 11.8438 173.676 9.78517 174.406 7.12887H178.988Z" fill="white"/>
<path d="M156.683 11.3666C159.822 11.3666 162.366 8.82207 162.366 5.68328C162.366 2.54449 159.822 0 156.683 0C153.544 0 151 2.54449 151 5.68328C151 8.82207 153.544 11.3666 156.683 11.3666Z" fill="#E10419"/>
</svg>
