<svg width="309" height="115" viewBox="0 0 309 115" fill="none" xmlns="http://www.w3.org/2000/svg">
<path d="M42.35 91.9L38.9 91.75C38.7 91.75 38.45 91.7 38.15 91.6C37.95 91.6 37.65 91.55 37.25 91.45L35.9 91.15C35.4 91.25 34.8 91.3 34.1 91.3C33.5 91.3 32.85 91.35 32.15 91.45C31.75 91.45 31.25 91.05 30.65 90.25L30.05 89.5C29.95 89.3 29.9 89 29.9 88.6C29.9 88.2 29.85 87.8 29.75 87.4L29 85V83.35L28.4 82.75C28.1 82.45 27.95 82.1 27.95 81.7C28.05 81.5 28.15 81.25 28.25 80.95C28.35 80.65 28.5 80.3 28.7 79.9L27.65 79.3C27.55 79 27.5 78.6 27.5 78.1C27.5 77.4 27.7 76.8 28.1 76.3C27.8 76.1 27.45 75.7 27.05 75.1L26.3 74.5C26.4 74.3 26.45 73.95 26.45 73.45C26.45 72.65 25.9 71.55 24.8 70.15C24.8 69.95 24.85 69.55 24.95 68.95C25.05 68.35 25.1 67.9 25.1 67.6C24.4 67.5 23.85 66.55 23.45 64.75C23.15 63.75 22.85 62.5 22.55 61L23 59.2C21.8 57.8 21.2 56.75 21.2 56.05C21.2 55.75 21.5 54.95 22.1 53.65C22 53.35 21.75 53.15 21.35 53.05L21.05 52.45C20.95 52.35 20.8 52.25 20.6 52.15C20.5 52.05 20.35 51.9 20.15 51.7C20.15 50.7 19.75 50.2 18.95 50.2C18.25 50.1 17.7 50.15 17.3 50.35L16.4 50.95V51.7C17.1 52.4 17.45 52.7 17.45 52.6C17.45 52.7 17.35 52.85 17.15 53.05V54.1C16.95 54.3 16.8 54.5 16.7 54.7C16.6 54.8 16.5 54.9 16.4 55C16.9 55.5 17.15 56 17.15 56.5L16.55 58V59.5C16.05 59.8 15.8 60.1 15.8 60.4C15.8 60.5 15.9 60.65 16.1 60.85L16.4 61.45C16.3 61.85 16.2 62.45 16.1 63.25C16 63.95 15.9 64.8 15.8 65.8C16 66.2 16.15 66.65 16.25 67.15C16.35 67.55 16.45 68.05 16.55 68.65L16.1 69.7V73.3L15.8 73.9C15.8 74.1 15.75 74.4 15.65 74.8C15.65 75.2 15.6 75.65 15.5 76.15C15.2 76.75 14.9 77.5 14.6 78.4C14.6 78.5 14.75 78.7 15.05 79C15.15 79.2 15.2 79.35 15.2 79.45C15.3 79.55 15.35 79.65 15.35 79.75L15.05 85.9C14.95 86.1 14.9 86.3 14.9 86.5C14.9 86.6 14.9 86.65 14.9 86.65C15 89.05 15.05 90.25 15.05 90.25C14.95 90.55 14.65 90.7 14.15 90.7L12.65 90.25L11.45 90.4C11.05 90.5 10.75 90.55 10.55 90.55C10.45 90.55 10.35 90.55 10.25 90.55H9.65C9.05 90.55 8.55 90.45 8.15 90.25L6.95 89.8C6.85 89.8 6.7 89.95 6.5 90.25H5.45C5.15 90.25 4.9 90.3 4.7 90.4C4.6 90.4 4.5 90.4 4.4 90.4L1.55 90.25C0.75 90.25 0.35 89.85 0.35 89.05C0.35 88.65 0.4 88.2 0.5 87.7C0.7 87.1 0.85 86.45 0.95 85.75C0.95 85.05 0.95 84.3 0.95 83.5C0.95 82.7 0.9 81.9 0.8 81.1L2.15 79.75C1.85 79.45 1.65 79.15 1.55 78.85C1.35 78.45 1.25 78 1.25 77.5C1.25 76.2 1.65 75.15 2.45 74.35C1.65 73.55 1.25 72.95 1.25 72.55C1.45 71.75 1.7 71.25 2 71.05C2.3 70.95 2.55 70.55 2.75 69.85C2.65 69.65 2.5 69.35 2.3 68.95C2.3 68.25 2.45 67.25 2.75 65.95C2.55 65.65 2.45 64.9 2.45 63.7C2.45 63.3 2.45 62.9 2.45 62.5C2.45 62 2.5 61.5 2.6 61C2.5 60.9 2.45 60.75 2.45 60.55C2.45 60.35 2.4 60.1 2.3 59.8L3.05 54.55C3.05 54.05 3.05 53.55 3.05 53.05C3.05 52.45 3 51.8 2.9 51.1L3.35 50.5C3.25 50 3.2 49.45 3.2 48.85C3.2 48.25 3.2 47.55 3.2 46.75C3.2 46.25 3.35 45.95 3.65 45.85L4.55 45.55C4.45 45.45 4.35 45.3 4.25 45.1C4.15 44.8 4.05 44.45 3.95 44.05C3.95 43.85 3.9 43.6 3.8 43.3C3.8 43 3.75 42.65 3.65 42.25L3.05 41.05L4.25 37L4.1 34.45C4 33.75 3.95 33.25 3.95 32.95C3.95 32.55 3.95 32.3 3.95 32.2L4.85 28C5.05 27.8 4.8 27.4 4.1 26.8C4.6 26.2 4.85 25.3 4.85 24.1L4.7 21.85C4.8 21.65 4.9 21.5 5 21.4C5.1 21.2 5.2 21 5.3 20.8L5.75 18.85L5.9 16.6L5.3 14.35L6.2 9.54999C6.2 8.95 6.15 8.6 6.05 8.5C5.55 7.5 5.3 6.35 5.3 5.05C5.3 4.25 5.35 3.55 5.45 2.95C5.65 2.25 5.8 1.69999 5.9 1.29999C6 0.899992 6.4 0.699991 7.1 0.699991C7.6 0.699991 8 0.849992 8.3 1.14999C8.4 1.55 8.65 1.75 9.05 1.75L10.1 0.849998C11.3 1.35 12.05 1.6 12.35 1.6L13.85 1.29999C14.05 1.29999 14.3 1.34999 14.6 1.45L15.95 1.29999C16.35 1.19999 16.6 1.14999 16.7 1.14999C16.9 1.14999 17.05 1.14999 17.15 1.14999C18.55 1.14999 19.5 1.55 20 2.35C20 3.44999 20.5 5 21.5 7C21.3 7.1 21.05 7.2 20.75 7.3C20.45 7.39999 20.15 7.55 19.85 7.75C19.75 7.95 19.9 8.29999 20.3 8.79999C20.8 9.29999 21.25 9.65 21.65 9.85C21.35 10.15 21.15 10.5 21.05 10.9C21.15 10.7 21.75 11.85 22.85 14.35C22.95 14.35 23.05 15.2 23.15 16.9L22.85 18.55L24.05 19.45L24.95 22.9V24.55L25.85 25.6C25.75 25.7 25.75 26 25.85 26.5L26.6 27.85C26.5 28.15 26.45 28.45 26.45 28.75C26.45 29.05 26.45 29.3 26.45 29.5C26.45 30.2 26.5 30.65 26.6 30.85L26.75 31.75L27.5 32.95V33.25C27.5 33.85 27.7 34.55 28.1 35.35C27.9 35.95 27.75 36.55 27.65 37.15C27.65 37.75 27.7 38.35 27.8 38.95L29 40.3C29.1 40.6 29.2 41 29.3 41.5C29.4 41.9 29.55 42.35 29.75 42.85C30.05 43.15 30.35 43.65 30.65 44.35C30.85 44.95 31.1 45.4 31.4 45.7C31.3 45.8 31.25 46.1 31.25 46.6C31.25 46.9 31.25 47.3 31.25 47.8C31.35 48.3 31.45 48.9 31.55 49.6C31.85 52.1 32.35 53.65 33.05 54.25C33.15 54.35 33.2 54.55 33.2 54.85C33.2 55.25 32.95 56.2 32.45 57.7C31.85 59 31.55 59.85 31.55 60.25C31.55 60.45 31.65 60.55 31.85 60.55H32C32.9 60.25 33.6 58.8 34.1 56.2C34.6 53.5 34.85 52.15 34.85 52.15C34.95 51.85 35 51.3 35 50.5C35 49.8 34.95 49 34.85 48.1C34.75 47.2 34.6 46.2 34.4 45.1L33.95 44.35L34.7 43.3C34.7 43.3 34.6 43.1 34.4 42.7C34.1 42.4 33.95 42.15 33.95 41.95C34.05 41.65 34.1 41.3 34.1 40.9C34.2 40.4 34.2 39.9 34.1 39.4L33.95 38.05C33.95 37.75 33.9 37.55 33.8 37.45C33.8 37.25 33.8 37.1 33.8 37C34 35.9 35.1 34.85 37.1 33.85C37.2 33.75 36.85 33.4 36.05 32.8L34.7 31.75V29.05L35.45 28C35.35 27.9 35.1 27.55 34.7 26.95L35 26.35C35.1 26.15 35.15 25.95 35.15 25.75C35.25 25.15 35.25 24.2 35.15 22.9L34.85 20.8C34.85 20.3 35.15 19.7 35.75 19C36.15 18.3 36.5 17.95 36.8 17.95C36.6 17.75 36.35 17.65 36.05 17.65C35.65 17.05 35.6 16.3 35.9 15.4C35.3 14.6 35.05 14.05 35.15 13.75L35.9 12.4C35.8 11.8 35.75 11.15 35.75 10.45C35.75 9.75 35.75 9.05 35.75 8.35L35.9 3.39999C35.9 2.2 36.35 1.7 37.25 1.89999C37.25 1.89999 37.65 2.14999 38.45 2.64999C39.25 3.14999 39.65 3.39999 39.65 3.39999C39.85 3.39999 40.3 3.24999 41 2.95L42.2 2.49999C42.3 2.49999 42.7 2.7 43.4 3.1C43.9 3.5 44.25 3.7 44.45 3.7C44.65 3.7 45.2 3.55 46.1 3.24999L47.45 2.8C47.75 2.8 47.95 2.85 48.05 2.95C48.25 3.15 48.35 3.24999 48.35 3.24999L48.95 2.95C49.15 2.85 49.35 2.8 49.55 2.8C49.85 2.8 50.25 3.2 50.75 3.99999L50 4.9C50 5 50.05 5.15 50.15 5.34999C50.25 5.44999 50.35 5.59999 50.45 5.8L50.75 6.69999C50.75 6.79999 50.6 6.99999 50.3 7.3C49.9 7.7 49.7 8 49.7 8.19999L49.85 9.4C49.95 9.7 50 9.95 50 10.15C50 10.35 50 10.5 50 10.6C50 10.8 49.95 11.1 49.85 11.5C49.75 11.8 49.65 12.2 49.55 12.7L49.25 14.05C49.35 14.25 49.45 14.5 49.55 14.8C49.65 15 49.75 15.2 49.85 15.4C49.85 15.5 49.65 15.75 49.25 16.15C49.15 16.45 49.1 16.9 49.1 17.5C49 18.1 48.55 18.55 47.75 18.85C47.75 18.95 47.95 19.05 48.35 19.15C48.55 19.25 48.7 19.35 48.8 19.45C48.9 19.55 49 19.65 49.1 19.75C49.1 19.85 48.95 20 48.65 20.2L48.05 20.65C48.55 21.15 49 21.8 49.4 22.6C49.6 23.3 49.6 24.05 49.4 24.85C49.5 24.95 49.55 25.15 49.55 25.45L48.8 27.55C48.6 28.25 48.4 28.75 48.2 29.05C48 29.35 47.9 29.55 47.9 29.65C47.9 29.95 48.3 30.5 49.1 31.3L48.8 32.8C48.3 33 47.65 33.15 46.85 33.25L45.8 34.15L45.35 35.65C45.45 35.75 45.5 35.95 45.5 36.25C45.5 36.25 45.65 36.35 45.95 36.55C46.15 36.55 46.45 36.35 46.85 35.95C47.35 35.65 47.65 35.5 47.75 35.5L48.2 35.8C48.3 36.3 48.4 36.9 48.5 37.6C48.6 38.2 48.7 38.85 48.8 39.55C48.6 41.35 48.45 42.65 48.35 43.45C48.25 43.55 48.15 43.75 48.05 44.05C47.95 44.35 47.8 44.75 47.6 45.25L47.9 47.05C47.6 47.15 47.45 47.65 47.45 48.55V50.35C47.35 50.45 47.3 50.6 47.3 50.8C47.3 50.9 47.25 51.05 47.15 51.25L45.95 51.85C46.05 51.95 46.2 52.1 46.4 52.3C46.6 52.4 46.8 52.55 47 52.75C46.9 53.05 46.9 53.5 47 54.1C47 54.2 47.15 54.35 47.45 54.55C47.75 54.65 47.9 54.85 47.9 55.15C47.9 55.35 47.55 55.75 46.85 56.35C46.95 56.95 46.95 57.45 46.85 57.85C46.55 58.45 46.4 58.7 46.4 58.6C46.5 59.6 46.65 59.95 46.85 59.65C46.65 59.95 46.3 60.25 45.8 60.55L45.5 61.9C45.5 61.9 45.75 62.3 46.25 63.1C46.65 63.8 46.85 64.25 46.85 64.45C46.85 64.65 46.7 64.95 46.4 65.35C46.1 65.65 45.9 65.85 45.8 65.95L46.25 67.75C46.55 68.95 46.65 69.6 46.55 69.7C46.55 71.2 46.1 71.95 45.2 71.95L44.75 71.65C44.65 71.65 44.6 71.8 44.6 72.1C44.6 72.6 44.7 73.05 44.9 73.45C45.2 73.75 45.5 73.95 45.8 74.05L46.1 74.65L45.8 75.7C45.5 76.3 45.35 76.7 45.35 76.9L45.5 77.35V77.65C45.5 78.65 45.55 79.3 45.65 79.6L45.95 80.2L45.65 84.55C45.65 84.65 45.5 84.85 45.2 85.15V87.1C45.1 87.2 44.95 87.55 44.75 88.15V88.3C44.75 88.8 45.1 89.9 45.8 91.6L45.65 91.9C45.55 91.9 45.2 91.9 44.6 91.9C44.1 92 43.35 92 42.35 91.9ZM44.9 7.9C45.1 7.69999 45.3 7.59999 45.5 7.59999C45.5 7.49999 45.4 7.35 45.2 7.15L44.9 7.9ZM10.1 9.54999C10.4 9.64999 10.7 9.49999 11 9.1C10.8 8.9 10.65 8.79999 10.55 8.79999C10.25 8.79999 10.1 9.04999 10.1 9.54999ZM15.95 11.65C16.25 11.75 16.55 11.6 16.85 11.2C16.75 11.1 16.6 11.05 16.4 11.05C16.1 11.05 15.95 11.25 15.95 11.65ZM38.9 12.4C39.1 12.5 39.3 12.45 39.5 12.25C39.6 12.15 39.55 11.9 39.35 11.5C39.05 11.5 38.9 11.8 38.9 12.4ZM45.65 22C45.75 21.8 45.7 21.6 45.5 21.4C45.4 21.2 45.2 21.25 44.9 21.55C44.9 21.85 45.15 22 45.65 22ZM13.85 32.65C13.95 32.55 14 32.4 14 32.2C14 31.9 13.8 31.75 13.4 31.75C13.3 32.05 13.45 32.35 13.85 32.65ZM18.35 40C18.45 39.8 18.4 39.6 18.2 39.4C18 39.2 17.8 39.2 17.6 39.4C17.6 39.6 17.85 39.8 18.35 40ZM45.05 41.05C45.15 40.85 45.1 40.65 44.9 40.45C44.7 40.25 44.5 40.25 44.3 40.45C44.3 40.65 44.55 40.85 45.05 41.05ZM10.85 43.3H12.95C13.65 43.3 14.2 43.2 14.6 43L14 41.65C13.7 41.45 13.4 41.3 13.1 41.2C12.9 41.1 12.7 41 12.5 40.9C12 40.9 11.5 41.05 11 41.35L10.55 42.7L10.85 43.3ZM39.2 43.3C39.5 43.4 39.8 43.25 40.1 42.85C40 42.75 39.85 42.7 39.65 42.7C39.35 42.7 39.2 42.9 39.2 43.3ZM7.25 51.25C7.35 51.15 7.45 51.05 7.55 50.95C7.65 50.85 7.75 50.75 7.85 50.65C7.85 50.35 7.8 50.2 7.7 50.2H6.95L6.5 50.65L6.35 51.25H7.25ZM36.05 65.65L36.8 65.05C36.8 64.95 36.6 64.95 36.2 65.05C36.1 65.15 36.05 65.35 36.05 65.65ZM38 66.7C38.2 66.8 38.5 66.65 38.9 66.25C38.8 66.15 38.6 66.1 38.3 66.1C38 66.1 37.9 66.3 38 66.7ZM30.5 79.45C31.4 79.45 31.9 79.4 32 79.3L30.8 78.7L30.5 79.45ZM6.5 83.05L6.2 82.6C6 82.6 5.85 82.65 5.75 82.75L6.5 83.05ZM6.5 85.45C6.6 85.25 6.55 85.05 6.35 84.85C6.25 84.65 6.05 84.7 5.75 85C5.75 85.3 6 85.45 6.5 85.45ZM10.25 84.85H9.8C9.9 84.95 10.05 85.2 10.25 85.6V84.85ZM15.2 90.1C15.2 90.1 15.15 90.15 15.05 90.25C15.15 90.25 15.2 90.2 15.2 90.1ZM73.0648 92.95C72.8648 92.95 72.8148 92.95 72.9148 92.95C72.8148 92.95 72.6148 92.85 72.3148 92.65L71.5648 92.35C71.3648 92.45 71.1148 92.5 70.8148 92.5C70.6148 92.5 70.3648 92.55 70.0648 92.65L67.9648 91.45C67.6648 90.75 67.2648 90.4 66.7648 90.4C66.6648 90.3 66.5648 90.3 66.4648 90.4C66.3648 90.5 66.1648 90.55 65.8648 90.55C65.8648 90.55 65.3648 90.15 64.3648 89.35L63.1648 88.9C62.8648 88.6 62.5148 88.25 62.1148 87.85C61.8148 87.45 61.4148 87 60.9148 86.5L59.7148 85.6V85.3C59.7148 84.9 59.4648 84.3 58.9648 83.5C58.4648 83 58.0648 82.6 57.7648 82.3C57.5648 81.9 57.4148 81.65 57.3148 81.55V79.75C57.8148 80.05 58.1148 80 58.2148 79.6C58.4148 79.3 58.2148 79 57.6148 78.7C57.2148 78.4 57.0148 78.15 57.0148 77.95V76.15C57.0148 75.85 57.0148 75.55 57.0148 75.25C57.0148 74.95 56.9648 74.65 56.8648 74.35C56.7648 73.85 56.6648 73.4 56.5648 73C56.5648 72.5 56.6148 72.05 56.7148 71.65L57.0148 70.15C56.9148 69.55 56.8648 68.95 56.8648 68.35C56.8648 67.65 56.8648 66.95 56.8648 66.25C56.8648 65.85 57.0148 65.35 57.3148 64.75L57.7648 63.55C57.6648 62.75 57.5648 61.9 57.4648 61C57.3648 60 57.2648 59 57.1648 58C57.1648 57.7 57.5648 56.75 58.3648 55.15C58.5648 55.05 58.7648 54.95 58.9648 54.85C59.1648 54.75 59.3648 54.6 59.5648 54.4C59.5648 54.3 59.1148 53.95 58.2148 53.35L57.7648 50.2C57.7648 49.7 57.9648 49.4 58.3648 49.3C58.6648 49.1 58.7648 48.75 58.6648 48.25L60.6148 46.9C60.5148 46.5 60.1648 46.25 59.5648 46.15C59.4648 46.15 59.1148 46.25 58.5148 46.45C58.2148 46.25 58.0648 46.05 58.0648 45.85C58.0648 45.25 58.3648 44.75 58.9648 44.35C59.5648 43.85 59.8648 43.55 59.8648 43.45L59.1148 40.9C59.1148 40.9 59.5148 40.2 60.3148 38.8C61.0148 38.7 61.3648 38.5 61.3648 38.2C61.3648 38 61.2148 37.75 60.9148 37.45C60.5148 37.15 60.3148 36.9 60.3148 36.7C60.3148 36.6 60.4148 36.45 60.6148 36.25C60.9148 35.65 61.2148 34.55 61.5148 32.95L62.4148 32.05L62.8648 30.55C63.4648 30.35 64.1648 30.05 64.9648 29.65L66.9148 27.25C67.9148 25.95 68.7648 25.35 69.4648 25.45L69.9148 25.6C69.9148 25.5 70.3148 25.35 71.1148 25.15C73.5148 24.35 74.8648 24 75.1648 24.1L75.9148 24.25C76.5148 23.85 76.9648 23.5 77.2648 23.2L78.0148 23.35C78.2148 23.35 78.3648 23.4 78.4648 23.5C78.5648 23.6 78.6648 23.65 78.7648 23.65L79.9648 23.5L81.3148 24.7C81.3148 24.7 81.6148 24.6 82.2148 24.4L82.9648 24.1C83.3648 24.3 83.8148 24.5 84.3148 24.7C84.8148 24.9 85.3148 25.1 85.8148 25.3C86.3148 25.1 87.0148 25.1 87.9148 25.3L87.7648 26.05V26.2C87.7648 26.8 88.3148 27.1 89.4148 27.1H90.6148C90.6148 27.1 91.2648 28.3 92.5648 30.7L93.4648 30.4C93.8648 30.4 94.1148 30.55 94.2148 30.85L95.8648 36.55C95.7648 36.75 95.7148 37.1 95.7148 37.6C95.7148 38 95.7148 38.45 95.7148 38.95L96.1648 40C96.3648 40.6 96.4648 40.9 96.4648 40.9L96.1648 41.35C96.0648 41.45 96.0148 41.6 96.0148 41.8V44.05C95.9148 44.15 95.8148 44.35 95.7148 44.65C95.6148 44.85 95.5148 45.15 95.4148 45.55C94.8148 45.65 94.5148 45.85 94.5148 46.15C94.5148 46.45 94.9648 47 95.8648 47.8C96.6648 48.6 97.0648 49.1 97.0648 49.3C97.0648 49.5 96.8148 49.6 96.3148 49.6L95.8648 51.7C95.7648 51.8 95.6148 52.1 95.4148 52.6C95.4148 53.2 95.7148 54.5 96.3148 56.5C95.9148 56.7 95.6148 56.95 95.4148 57.25C95.4148 57.25 95.4148 57.65 95.4148 58.45L95.5648 59.95C95.5648 60.05 95.5648 60.25 95.5648 60.55C95.5648 60.75 95.5148 61.05 95.4148 61.45L95.2648 62.95H94.5148C93.7148 62.95 93.0648 62.55 92.5648 61.75C92.1648 61.05 91.8148 60.7 91.5148 60.7C91.4148 60.7 91.1148 61 90.6148 61.6C90.0148 62.2 89.6148 62.5 89.4148 62.5L87.7648 62.35C87.2648 62.25 86.8648 62.25 86.5648 62.35C86.2648 62.35 86.0648 62.35 85.9648 62.35L82.8148 61C82.1148 61.6 81.3148 61.9 80.4148 61.9C79.3148 61.9 78.3648 61.55 77.5648 60.85C77.3648 61.05 77.2648 61.2 77.2648 61.3H75.0148C74.9148 61.3 74.8648 61.3 74.8648 61.3C74.8648 61.2 74.8148 61.15 74.7148 61.15H74.1148C73.2148 61.15 72.4648 61.7 71.8648 62.8V63.4C71.7648 63.6 71.6148 63.9 71.4148 64.3C71.3148 64.6 71.1648 64.95 70.9648 65.35C70.9648 65.45 71.0648 65.6 71.2648 65.8L71.5648 66.4V66.7C71.5648 66.8 71.5648 67 71.5648 67.3C71.5648 67.5 71.5148 67.8 71.4148 68.2C71.5148 68.5 71.5648 69 71.5648 69.7C71.5648 70.1 71.3148 70.45 70.8148 70.75L70.5148 75.7C71.1148 76.2 71.3648 77.05 71.2648 78.25H73.0648C73.6648 78.25 74.1148 78.45 74.4148 78.85C74.7148 79.25 74.9148 79.45 75.0148 79.45L76.0648 79L77.1148 79.75C77.4148 79.75 77.6148 79.6 77.7148 79.3L78.6148 77.2V74.95L78.7648 72.7C78.8648 72.4 78.9148 72.15 78.9148 71.95C79.0148 71.65 79.0648 71.45 79.0648 71.35L78.9148 70.9C79.1148 70.5 79.2148 70.2 79.2148 70C79.2148 69.7 79.2148 69.5 79.2148 69.4L78.9148 68.05C79.3148 67.05 79.8148 66.55 80.4148 66.55C81.2148 66.95 82.3148 67.3 83.7148 67.6L84.4648 67.3C84.7648 67.2 85.0148 67.15 85.2148 67.15C85.4148 67.15 85.7648 67.55 86.2648 68.35C87.3648 67.95 87.9148 67.75 87.9148 67.75L89.1148 68.5H89.4148C90.6148 68.5 91.7648 68 92.8648 67L95.4148 69.4C94.9148 70.3 94.3648 71.45 93.7648 72.85C93.6648 73.35 93.5148 73.95 93.3148 74.65C93.2148 75.35 93.0148 76.1 92.7148 76.9C92.0148 77.2 91.6648 77.6 91.6648 78.1C91.6648 78.3 91.8148 78.65 92.1148 79.15C92.4148 79.75 92.5648 80.15 92.5648 80.35L92.2648 80.8C92.4648 81.3 92.4148 81.75 92.1148 82.15L91.6648 82.9C91.7648 83 91.8148 83.2 91.8148 83.5C91.8148 84.4 91.1648 85.15 89.8648 85.75L89.5648 86.05C89.6648 86.15 89.7148 86.3 89.7148 86.5C89.7148 87.2 89.3148 87.65 88.5148 87.85C87.4148 88.15 86.7648 88.4 86.5648 88.6C86.3648 88.9 86.0648 89.25 85.6648 89.65C85.2648 90.05 84.8148 90.5 84.3148 91C82.3148 92.3 80.9148 92.85 80.1148 92.65L78.3148 92.2C77.8148 92.2 77.3148 92.35 76.8148 92.65C76.3148 92.95 75.9148 93.05 75.6148 92.95L75.0148 92.8H74.2648C73.8648 92.8 73.5648 92.8 73.3648 92.8C73.1648 92.9 73.0148 92.95 72.9148 92.95C73.0148 92.95 73.0648 92.95 73.0648 92.95ZM76.0648 29.8L76.3648 29.2L75.9148 28.9C75.9148 29.2 75.9648 29.5 76.0648 29.8ZM86.5648 34.9C87.0648 34.9 87.3648 34.6 87.4648 34L87.3148 32.05H87.0148C86.7148 32.05 86.5648 31.8 86.5648 31.3C86.3648 30.8 86.1148 30.55 85.8148 30.55C85.4148 30.35 85.1148 30.5 84.9148 31C84.8148 31.1 84.7648 31.25 84.7648 31.45C84.8648 31.65 84.9148 31.85 84.9148 32.05L85.0648 33.1L84.6148 33.55L86.5648 34.9ZM73.3648 36.85C74.1648 36.55 74.1648 36.2 73.3648 35.8C73.1648 36 73.1648 36.35 73.3648 36.85ZM92.8648 36.7L92.5648 36.1L92.1148 36.4L92.8648 36.7ZM72.9148 50.35L74.4148 49.9L76.5148 49.3C77.2148 49.3 77.9648 49.25 78.7648 49.15C79.5648 48.95 80.4648 48.75 81.4648 48.55L81.9148 46.75C82.0148 46.65 82.2648 46.5 82.6648 46.3C82.2648 45.9 81.9148 45.5 81.6148 45.1C81.4148 44.7 81.3648 44.3 81.4648 43.9L81.6148 42.85V41.95C81.6148 41.05 81.2148 40.3 80.4148 39.7C80.5148 39.4 80.5648 39 80.5648 38.5C80.5648 37.7 79.6648 37.25 77.8648 37.15C77.5648 37.15 77.0148 37.45 76.2148 38.05L73.8148 39.7C74.2148 40 74.2648 40.4 73.9648 40.9C73.8648 41.3 73.5148 41.5 72.9148 41.5V41.95C73.2148 41.75 73.5148 41.9 73.8148 42.4C74.0148 42.8 74.0648 43.05 73.9648 43.15L73.6648 47.65C73.6648 47.95 73.6648 48.2 73.6648 48.4C73.7648 48.6 73.8148 48.7 73.8148 48.7C73.8148 49 73.6648 49.15 73.3648 49.15C73.0648 48.95 72.8148 48.7 72.6148 48.4L72.1648 48.7L72.0148 49.6L72.9148 50.35ZM83.4148 41.2C83.6148 41.5 83.9148 41.5 84.3148 41.2C84.0148 40.3 83.7148 40.3 83.4148 41.2ZM73.8148 48.55C73.8148 48.75 73.8148 48.8 73.8148 48.7C73.8148 48.7 73.8148 48.65 73.8148 48.55ZM60.6148 60.4C60.9148 60.2 61.3148 59.65 61.8148 58.75L61.6648 58.3H61.3648C60.8648 58.3 60.2148 58.55 59.4148 59.05C59.7148 59.55 60.1148 60 60.6148 60.4ZM89.4148 59.35C89.5148 59.05 89.4648 58.8 89.2648 58.6C89.1648 58.5 88.9148 58.55 88.5148 58.75C88.5148 58.95 88.8148 59.15 89.4148 59.35ZM63.4648 79.45L64.6648 78.85L64.5148 78.25L63.7648 78.1L63.4648 78.4V78.25L63.3148 77.65L62.8648 77.5L62.5648 79.15L63.4648 79.45ZM74.8648 81.85C74.9648 81.65 74.9148 81.45 74.7148 81.25C74.5148 81.05 74.3148 81.05 74.1148 81.25C74.1148 81.45 74.3648 81.65 74.8648 81.85ZM97.9215 92.95C97.3215 92.45 97.0215 91.95 97.0215 91.45C97.0215 91.25 97.4215 90.75 98.2215 89.95C99.0215 89.25 99.5215 88.65 99.7215 88.15C99.7215 87.95 99.5715 87.55 99.2715 86.95C99.2715 86.15 99.4715 85.55 99.8715 85.15L100.621 84.25C100.821 83.75 101.021 83.05 101.221 82.15C101.421 81.25 101.621 80.25 101.821 79.15L103.321 78.1C103.521 77.5 103.671 76.55 103.771 75.25L104.671 74.35C104.671 74.35 104.621 74.3 104.521 74.2C104.521 74 104.471 73.75 104.371 73.45L104.671 72.1C104.871 71.3 105.121 70.65 105.421 70.15C105.921 70.15 106.371 69.95 106.771 69.55C106.871 69.25 106.921 68.75 106.921 68.05L107.371 67.45C107.271 67.35 107.121 67.1 106.921 66.7C106.621 66.4 106.471 66.15 106.471 65.95C106.671 65.85 106.971 65.5 107.371 64.9L107.221 64.45C107.221 63.55 107.771 62.3 108.871 60.7C109.971 59.3 110.421 58.3 110.221 57.7C110.221 57.5 109.871 56.9 109.171 55.9C109.771 55.7 110.071 55.4 110.071 55C109.871 53.9 109.421 53.4 108.721 53.5C108.521 53.5 108.321 53.6 108.121 53.8L108.271 53.05C108.271 52.95 108.071 52.55 107.671 51.85C107.171 51.05 106.871 50.4 106.771 49.9C105.771 47.8 105.271 46.55 105.271 46.15C105.271 45.45 105.471 44.9 105.871 44.5L104.221 44.2C104.121 43.6 103.821 42.65 103.321 41.35C103.021 41.05 102.721 40.6 102.421 40L101.971 37.45C101.771 36.45 101.321 35.75 100.621 35.35C100.621 34.65 100.421 33.95 100.021 33.25L99.4215 32.8L98.5215 30.7C98.4215 30.3 98.3215 29.85 98.2215 29.35C98.1215 28.85 97.9715 28.25 97.7715 27.55L96.7215 25.15C96.8215 25.15 96.9215 24.9 97.0215 24.4L97.7715 24.25C97.9715 24.75 98.2715 25 98.6715 25L99.2715 24.7C99.4715 24.6 99.6715 24.55 99.8715 24.55L100.321 24.7C100.421 24.8 100.621 24.85 100.921 24.85L101.821 24.55C102.021 24.45 102.171 24.4 102.271 24.4C102.371 24.3 102.471 24.25 102.571 24.25H103.171C103.271 24.35 103.371 24.4 103.471 24.4C103.771 24.5 104.271 24.5 104.971 24.4C105.171 25.3 105.821 25.75 106.921 25.75C107.521 25.15 108.221 24.65 109.021 24.25L109.771 24.4C110.171 24.6 110.371 24.7 110.371 24.7C110.971 24.5 111.421 24.2 111.721 23.8C112.321 23.9 112.621 24.35 112.621 25.15V26.95C112.821 27.35 113.071 27.8 113.371 28.3C113.671 28.8 113.921 29.35 114.121 29.95L114.421 31.9L115.171 33.7C115.171 34.3 115.321 35.2 115.621 36.4L116.821 37.3C117.021 37.8 116.971 38.25 116.671 38.65C116.871 39.05 117.071 39.15 117.271 38.95L118.021 38.5L119.371 37.9C120.071 37 120.721 35.5 121.321 33.4C121.821 33.6 122.171 33.6 122.371 33.4C122.371 33.2 122.171 32.75 121.771 32.05L122.671 31C122.471 28.3 123.071 25.95 124.471 23.95C124.871 24.05 125.271 24.1 125.671 24.1C126.171 24.1 126.721 24.1 127.321 24.1C127.621 25.3 127.871 26 128.071 26.2L128.371 26.05C128.871 25.75 129.271 25.6 129.571 25.6C129.871 25.4 130.021 25.25 130.021 25.15C130.021 25.05 130.121 24.9 130.321 24.7L132.271 23.65H132.571L132.721 23.8L133.921 23.35L135.121 25C135.621 24.5 136.521 23.85 137.821 23.05C138.521 23.05 138.871 23.55 138.871 24.55L137.821 25.6C137.721 25.8 137.571 26.15 137.371 26.65C137.271 27.05 137.121 27.5 136.921 28V28.9C136.921 29.3 136.871 29.55 136.771 29.65C136.571 29.75 136.321 29.9 136.021 30.1C135.821 30.3 135.521 30.5 135.121 30.7C135.221 31 135.271 31.55 135.271 32.35L133.621 37.45L132.871 38.8C132.871 39 132.721 39.35 132.421 39.85L131.821 40.45C131.421 40.65 131.171 40.6 131.071 40.3C129.571 41 128.821 41.4 128.821 41.5C128.921 41.6 129.271 41.65 129.871 41.65L131.821 42.1V43.3C131.621 43.9 131.371 44.35 131.071 44.65L130.321 44.35C130.121 44.55 130.021 44.85 130.021 45.25C130.021 45.65 130.071 46.05 130.171 46.45C130.271 46.85 130.271 47.15 130.171 47.35C129.771 47.45 129.471 47.9 129.271 48.7C129.171 49.7 129.071 50.25 128.971 50.35C128.471 50.55 127.921 51.15 127.321 52.15C127.321 52.55 127.271 53.1 127.171 53.8C127.171 54.5 127.121 55.3 127.021 56.2C127.021 56.3 126.871 56.5 126.571 56.8C126.171 57.2 125.971 57.5 125.971 57.7L126.421 58.75C126.721 59.45 126.871 59.95 126.871 60.25C126.471 60.65 126.271 61.25 126.271 62.05C126.271 62.85 126.421 63.25 126.721 63.25C127.121 63.25 127.521 62.9 127.921 62.2C128.321 62.3 128.621 62.65 128.821 63.25C128.921 63.55 128.971 63.95 128.971 64.45C129.071 64.55 129.171 64.65 129.271 64.75C129.471 64.85 129.621 65 129.721 65.2L129.871 67.15C130.071 67.25 130.221 67.55 130.321 68.05L130.171 68.5C130.071 68.3 129.921 68.3 129.721 68.5V68.8L131.071 69.25C131.071 69.45 130.871 69.9 130.471 70.6L132.421 71.05C132.321 71.15 132.271 71.35 132.271 71.65C132.271 71.85 132.221 72.1 132.121 72.4C132.121 72.7 132.621 73.35 133.621 74.35C133.521 74.65 133.471 75.2 133.471 76C133.871 76.1 134.221 76.65 134.521 77.65C134.521 77.65 134.421 77.95 134.221 78.55C133.921 78.95 133.771 79.3 133.771 79.6C133.771 80.6 134.021 81.1 134.521 81.1C134.821 81.1 135.021 81.05 135.121 80.95C135.121 80.85 135.171 80.8 135.271 80.8C135.571 80.8 135.921 81.05 136.321 81.55C136.821 82.05 137.071 82.4 137.071 82.6C137.071 83.1 136.921 83.6 136.621 84.1V85.9C136.921 86 137.221 86.2 137.521 86.5C137.821 86.7 138.171 86.9 138.571 87.1L140.071 90.1V90.85C139.871 91.05 139.621 91.15 139.321 91.15L138.421 90.85C138.221 90.75 138.021 90.7 137.821 90.7C137.621 90.7 137.471 90.7 137.371 90.7C137.171 90.9 136.571 91.15 135.571 91.45C134.671 91.75 134.021 91.9 133.621 91.9C133.621 91.9 133.421 91.8 133.021 91.6C132.721 91.3 132.521 91.15 132.421 91.15L131.821 91.45C131.621 91.55 131.421 91.6 131.221 91.6L129.421 91C129.321 91 129.171 91.1 128.971 91.3C128.571 91.5 128.371 91.6 128.371 91.6H127.921C127.821 91.6 127.621 91.6 127.321 91.6C127.021 91.6 126.721 91.65 126.421 91.75H125.821C125.121 91.75 124.621 91.15 124.321 89.95L123.721 86.5C123.721 86.4 123.821 86.25 124.021 86.05C123.821 85.85 123.371 85.65 122.671 85.45C122.471 85.25 122.271 84.95 122.071 84.55L121.171 80.5C121.071 80.1 121.121 79.8 121.321 79.6C121.621 79.4 121.771 79.05 121.771 78.55L120.421 77.05C120.321 76.95 120.171 76.6 119.971 76C119.871 75.4 119.821 75 119.821 74.8C119.821 74.4 119.971 73.55 120.271 72.25L120.571 71.05C120.771 70.55 120.621 70.2 120.121 70C119.821 69.9 119.571 69.95 119.371 70.15C119.271 70.45 118.771 70.6 117.871 70.6C117.771 70.6 117.721 70.65 117.721 70.75V71.5C117.721 72.1 117.671 72.6 117.571 73C116.871 73 116.571 73.45 116.671 74.35L116.971 76.3C116.371 76.4 116.071 76.8 116.071 77.5C116.071 77.6 116.171 77.95 116.371 78.55L116.521 79.3C116.421 79.5 116.321 79.8 116.221 80.2C116.221 80.5 116.121 80.85 115.921 81.25C115.221 82.55 114.921 83.3 115.021 83.5C115.021 83.7 114.821 83.95 114.421 84.25C114.421 84.65 114.121 85.4 113.521 86.5C113.821 86.9 113.971 87.4 113.971 88C113.971 88.8 113.521 89.9 112.621 91.3C112.221 91.9 111.621 92.2 110.821 92.2L108.871 91.9C108.571 91.9 108.171 92.15 107.671 92.65H107.071C106.671 91.95 106.321 91.6 106.021 91.6L105.421 91.9C105.221 92 105.071 92.05 104.971 92.05C104.871 92.15 104.771 92.2 104.671 92.2C103.571 92.4 103.021 92.4 103.021 92.2L101.821 91.9C100.721 91.9 99.4215 92.25 97.9215 92.95ZM134.221 27.85C134.321 27.85 134.421 27.8 134.521 27.7L134.821 27.55L134.521 27.1C134.521 27.2 134.471 27.3 134.371 27.4L134.221 27.85ZM107.071 33.55C108.871 33.55 109.771 33.15 109.771 32.35V32.2C109.671 31.8 109.371 31.6 108.871 31.6L108.121 31.9C107.721 31.9 107.421 31.75 107.221 31.45L107.521 30.4L106.921 30.55C106.421 30.55 106.171 30.95 106.171 31.75C106.171 32.05 106.271 32.6 106.471 33.4C106.471 33.5 106.671 33.55 107.071 33.55ZM128.521 32.8C128.821 32.9 129.071 32.85 129.271 32.65C129.471 32.45 129.371 32.25 128.971 32.05C128.671 32.05 128.521 32.3 128.521 32.8ZM128.221 38.05C128.321 37.85 128.271 37.65 128.071 37.45C127.971 37.35 127.721 37.4 127.321 37.6C127.521 37.9 127.821 38.05 128.221 38.05ZM111.121 51.85C111.221 51.75 111.071 51.55 110.671 51.25L110.371 51.55C110.471 51.65 110.571 51.7 110.671 51.7C110.871 51.7 111.021 51.75 111.121 51.85ZM114.871 56.05C114.871 55.85 114.771 55.65 114.571 55.45C114.471 55.25 114.271 55.3 113.971 55.6C113.971 55.9 114.271 56.05 114.871 56.05ZM124.771 79.15C125.371 79.15 125.671 78.6 125.671 77.5C125.571 77 125.421 76.7 125.221 76.6H124.471C124.471 76.6 124.321 76.85 124.021 77.35L123.721 78.1C123.821 78.8 124.171 79.15 124.771 79.15ZM107.221 77.95C107.321 77.75 107.271 77.55 107.071 77.35C106.971 77.25 106.721 77.3 106.321 77.5C106.521 77.8 106.821 77.95 107.221 77.95ZM110.521 88.6C110.621 88.4 110.571 88.2 110.371 88C110.271 87.9 110.021 87.95 109.621 88.15C109.821 88.45 110.121 88.6 110.521 88.6Z" fill="#D00000"/>
<path d="M168.396 17.95C167.996 17.85 167.496 17.55 166.896 17.05C166.596 16.75 166.446 16.4 166.446 16C166.346 15.4 166.396 14.8 166.596 14.2L167.346 13.3C167.446 13.2 167.446 12.95 167.346 12.55C167.346 12.15 167.296 11.9 167.196 11.8C166.796 11.6 166.546 11.3 166.446 10.9C166.346 10.7 166.296 10.1 166.296 9.1L166.596 8.05C166.696 7.74999 166.746 7.49999 166.746 7.3C166.746 6.99999 166.746 6.79999 166.746 6.69999L166.896 2.8C167.096 2.2 167.496 1.89999 168.096 1.89999L168.546 2.04999C168.646 2.15 168.796 2.2 168.996 2.2L169.896 1.75H171.696C171.896 1.75 172.146 1.95 172.446 2.35C172.646 2.65 172.796 2.9 172.896 3.1C173.096 3.19999 173.246 3.29999 173.346 3.39999C173.546 3.1 173.946 2.85 174.546 2.64999L174.846 1.14999C175.246 1.24999 175.746 1.54999 176.346 2.04999C176.546 2.15 177.096 2.2 177.996 2.2C178.096 2.2 178.296 2.05 178.596 1.75C178.896 1.44999 179.146 1.29999 179.346 1.29999L180.846 1.45C181.046 1.84999 181.246 2.34999 181.446 2.95C181.646 3.45 181.846 3.95 182.046 4.45C182.046 4.64999 181.946 4.84999 181.746 5.05C181.946 5.15 181.946 5.74999 181.746 6.84999L181.296 7.44999C181.296 7.84999 181.146 8.29999 180.846 8.79999L180.246 8.5C179.946 8.5 179.696 8.8 179.496 9.4C179.796 9.8 179.996 10 180.096 10L180.846 9.69999C181.146 9.69999 181.396 9.94999 181.596 10.45V12.55L182.046 15.7V15.85C182.046 16.65 181.546 17.1 180.546 17.2L179.796 16.75C179.596 16.85 179.346 16.95 179.046 17.05C178.846 17.15 178.646 17.25 178.446 17.35L177.396 17.05C177.096 16.95 176.796 16.9 176.496 16.9C175.496 16.9 174.496 16.95 173.496 17.05C172.496 17.15 171.596 17.3 170.796 17.5C170.396 17.8 169.896 17.95 169.296 17.95H168.396ZM177.696 3.85C177.796 3.75 177.996 3.7 178.296 3.7L178.146 3.1C177.746 3.19999 177.596 3.44999 177.696 3.85ZM170.796 7.15H170.196L170.796 7.9V7.15ZM177.696 92.5C177.496 92.5 177.296 92.4 177.096 92.2C176.896 92 176.746 91.9 176.646 91.9L173.646 91.6C173.546 91.6 173.296 91.7 172.896 91.9C172.596 92 172.296 92.05 171.996 92.05L170.646 91.9C170.246 91.8 169.946 91.75 169.746 91.75C169.546 91.75 169.396 91.75 169.296 91.75C169.196 91.85 168.996 91.95 168.696 92.05C168.496 92.15 168.246 92.25 167.946 92.35L167.196 92.05V89.35L167.796 88.45C167.896 88.15 167.946 87.5 167.946 86.5C168.346 86.4 168.446 86.1 168.246 85.6L167.796 84.7C167.796 83.8 168.096 83.2 168.696 82.9C169.296 82.6 169.596 82.4 169.596 82.3C169.596 82.1 169.546 81.9 169.446 81.7C169.446 81.4 169.396 81.05 169.296 80.65C168.896 80.35 168.546 79.9 168.246 79.3C168.146 79 167.996 78.55 167.796 77.95C167.496 75.85 167.346 74.3 167.346 73.3C167.646 72.9 167.696 71.75 167.496 69.85L167.946 69.4C167.946 69.4 167.946 68.8 167.946 67.6C168.146 67.4 168.296 67.1 168.396 66.7L167.196 66.1V64.9C167.196 64.4 167.146 63.9 167.046 63.4C167.046 62.8 166.996 62.2 166.896 61.6L166.596 59.35C166.996 59.25 167.246 58.25 167.346 56.35L168.396 56.5L168.546 56.35V55.3C168.246 54.8 167.796 54.65 167.196 54.85C167.196 54.25 167.096 53.25 166.896 51.85C166.796 50.45 166.746 49.75 166.746 49.75C166.746 49.65 166.846 49.3 167.046 48.7L167.346 48.1V44.65C167.346 43.95 167.196 43.45 166.896 43.15V42.55C166.896 41.95 166.996 41.45 167.196 41.05C167.696 41.05 167.996 40.85 168.096 40.45C168.196 40.05 167.946 39.75 167.346 39.55C167.446 39.45 167.496 39.25 167.496 38.95C167.496 38.65 167.346 38.3 167.046 37.9V34L167.646 29.05L167.346 27.55L166.896 26.2V25.15H168.996C169.496 25.95 169.996 26.35 170.496 26.35L171.696 25.75C172.496 25.45 172.896 25.3 172.896 25.3C172.996 25.3 173.246 25.45 173.646 25.75C174.046 26.15 174.296 26.35 174.396 26.35L175.746 25.9C175.646 26.1 175.596 26.3 175.596 26.5C175.596 26.6 175.596 26.65 175.596 26.65V26.8C175.596 26.9 175.996 26.95 176.796 26.95C177.296 26.95 177.646 26.85 177.846 26.65C178.046 26.45 178.196 26.35 178.296 26.35C178.396 26.45 178.646 26.5 179.046 26.5H179.496C179.696 26.3 179.846 26 179.946 25.6L181.596 24.85C182.096 24.85 182.396 25.15 182.496 25.75C182.496 26.15 182.446 26.7 182.346 27.4C182.246 28.1 182.096 29 181.896 30.1C180.596 30.1 179.946 30.3 179.946 30.7C179.946 30.7 180.346 31.1 181.146 31.9C181.846 32.6 182.196 33.25 182.196 33.85V34.9C181.896 35.6 181.696 35.95 181.596 35.95L182.346 38.35C181.646 38.95 181.296 39.3 181.296 39.4L181.746 40.6C181.846 40.7 181.896 40.9 181.896 41.2C181.896 41.4 181.796 41.8 181.596 42.4C181.696 42.5 181.746 42.75 181.746 43.15L181.596 43.3L181.746 44.2C182.046 44.5 182.246 44.8 182.346 45.1L182.046 46.9L180.846 47.2C180.946 47.6 181.146 47.65 181.446 47.35C182.046 47.75 182.346 48.25 182.346 48.85L182.046 50.2C181.746 50.9 181.596 51.35 181.596 51.55C181.796 51.65 181.946 51.8 182.046 52C182.246 52.2 182.446 52.4 182.646 52.6C182.646 53 182.446 53.35 182.046 53.65C181.446 54.25 181.096 54.7 180.996 55C181.696 55.5 182.096 56.2 182.196 57.1C182.296 57.4 182.296 58.05 182.196 59.05L182.346 59.8C182.446 60.1 182.496 60.35 182.496 60.55V61.9C182.496 62.6 182.496 63.3 182.496 64C182.596 64.7 182.696 65.45 182.796 66.25C182.796 66.75 182.696 67.3 182.496 67.9C182.596 68.1 182.646 68.4 182.646 68.8C182.646 69.4 182.446 69.9 182.046 70.3C181.546 71 181.296 71.4 181.296 71.5C181.296 71.8 181.446 72.1 181.746 72.4C181.746 72.4 181.596 72.65 181.296 73.15C180.896 73.55 180.696 73.85 180.696 74.05C180.896 74.25 181.046 74.35 181.146 74.35C181.246 74.35 181.446 74.2 181.746 73.9C182.046 73.9 182.296 74 182.496 74.2L182.646 83.2L182.496 84.85L182.346 85.6L181.896 86.35C181.596 86.65 181.446 86.85 181.446 86.95C181.646 87.35 181.846 87.65 182.046 87.85C182.446 88.55 182.646 89.3 182.646 90.1C182.646 90.5 182.496 91.1 182.196 91.9H181.446L179.946 91.3C179.546 91.3 178.796 91.7 177.696 92.5ZM174.396 30.1V29.35C174.296 29.25 174.096 29.2 173.796 29.2L173.496 29.65L173.646 30.1H174.396ZM176.346 41.95C176.746 41.95 177.296 41.75 177.996 41.35L178.746 40.45C178.746 40.75 178.846 41 179.046 41.2C179.546 41 179.796 40.7 179.796 40.3C179.796 39.7 179.546 39.4 179.046 39.4L178.296 39.55C177.896 38.55 177.446 38.05 176.946 38.05C176.746 38.35 176.496 38.6 176.196 38.8C175.796 39.5 175.546 40.2 175.446 40.9C175.446 41.6 175.746 41.95 176.346 41.95ZM173.646 53.65C173.846 53.65 174.046 53.55 174.246 53.35C174.246 53.25 174.146 53.1 173.946 52.9C173.946 53.2 173.846 53.45 173.646 53.65ZM176.346 57.85C176.846 57.65 177.146 57.35 177.246 56.95L176.496 56.35C176.096 56.65 176.046 57.15 176.346 57.85ZM167.946 58.6C168.146 58.6 168.346 58.5 168.546 58.3C168.746 58.1 168.696 57.9 168.396 57.7C168.096 57.7 167.946 58 167.946 58.6ZM175.446 67.75C175.546 67.55 175.496 67.35 175.296 67.15C175.196 67.05 174.946 67.1 174.546 67.3C174.746 67.6 175.046 67.75 175.446 67.75ZM174.996 87.4C175.396 87.4 175.796 87.2 176.196 86.8C176.196 86.3 175.846 86.05 175.146 86.05C175.046 86.15 174.896 86.55 174.696 87.25C174.796 87.35 174.896 87.4 174.996 87.4ZM194.812 114.1C194.512 114.1 194.012 113.9 193.312 113.5L192.712 101.95C193.012 101.65 193.262 100.7 193.462 99.1L193.762 98.65C194.062 98.35 194.212 98.05 194.212 97.75C194.212 97.35 194.012 97.15 193.612 97.15L193.012 97C192.512 96.3 192.312 95.55 192.412 94.75C192.612 94.55 192.862 94.4 193.162 94.3C193.462 94.1 193.612 93.95 193.612 93.85L192.712 86.95L192.112 85C192.212 84.8 192.262 84.55 192.262 84.25C192.262 83.95 192.312 83.6 192.412 83.2L193.462 83.05V82.6C192.962 82.6 192.512 82.4 192.112 82C192.212 81.8 192.312 81.6 192.412 81.4C192.512 81.1 192.612 80.75 192.712 80.35L191.962 76.9L191.512 72.7L191.962 71.5L192.262 70.3C191.862 69.9 191.612 69.4 191.512 68.8L191.362 65.05L191.662 64.45C191.862 64.05 191.912 63.8 191.812 63.7C191.512 63.1 191.212 62.35 190.912 61.45V59.95C191.012 59.85 191.262 59.75 191.662 59.65C191.862 59.05 191.962 58.6 191.962 58.3C191.762 58 191.562 57.65 191.362 57.25L191.212 55.45C191.112 54.95 191.062 54.55 191.062 54.25C191.062 53.95 191.062 53.7 191.062 53.5C191.162 53.4 191.212 53.05 191.212 52.45C191.212 52.45 191.112 52.3 190.912 52C190.912 51.3 191.212 50.45 191.812 49.45C192.612 48.35 193.012 47.7 193.012 47.5C193.012 46.9 192.662 46.2 191.962 45.4L191.812 45.25H191.362C191.262 44.75 191.162 44.25 191.062 43.75C191.062 43.25 191.012 42.8 190.912 42.4C190.412 41.5 190.212 40.9 190.312 40.6L190.462 38.8L190.312 38.2L190.612 36.85L189.862 35.05C189.862 34.45 190.162 34 190.762 33.7C190.762 33.4 190.562 33.05 190.162 32.65C190.262 32.45 190.312 31.85 190.312 30.85L189.412 26.95C189.412 25.85 189.762 25.3 190.462 25.3L191.212 25.45C191.312 25.85 192.012 26.15 193.312 26.35L194.362 27.4C194.962 27.4 195.312 26.8 195.412 25.6C195.712 25.7 196.462 25.75 197.662 25.75L198.562 25.6L199.162 26.65H199.612C199.712 26.65 200.062 26.35 200.662 25.75C200.962 25.85 201.162 26.05 201.262 26.35C201.462 26.95 201.612 27.3 201.712 27.4C202.412 26.9 202.662 26.25 202.462 25.45L204.862 25.3C205.462 25.3 205.812 25.6 205.912 26.2C206.112 26.8 206.612 27.1 207.412 27.1C208.212 26.9 208.762 26.5 209.062 25.9C209.262 25.3 209.712 25 210.412 25H211.462C211.862 25.1 212.212 25.15 212.512 25.15C212.712 25.05 212.912 24.95 213.112 24.85C213.412 24.75 213.762 24.65 214.162 24.55L215.962 24.85C216.162 24.75 216.412 24.65 216.712 24.55C217.012 24.45 217.362 24.35 217.762 24.25C218.062 24.25 218.612 24.5 219.412 25C219.512 25.7 219.762 26.05 220.162 26.05C220.262 26.05 220.362 26 220.462 25.9C220.462 25.8 220.562 25.75 220.762 25.75H221.962C221.762 25.75 221.862 26.05 222.262 26.65C222.562 27.25 223.012 27.5 223.612 27.4C223.712 27.5 223.862 27.65 224.062 27.85C224.262 27.95 224.462 28.2 224.662 28.6C224.862 29.2 225.062 29.7 225.262 30.1L226.612 31.45C227.012 31.95 227.212 32.5 227.212 33.1L227.062 33.85V34.9C226.062 35.6 225.562 36.1 225.562 36.4C225.762 36.9 225.962 37.1 226.162 37L226.612 36.85C227.512 36.85 228.012 37.5 228.112 38.8C228.112 39.1 227.912 39.45 227.512 39.85V42.4C227.712 42.6 227.862 42.85 227.962 43.15C228.062 43.35 228.212 43.6 228.412 43.9C228.312 44 228.112 44.35 227.812 44.95V45.7C227.812 46.2 227.962 46.7 228.262 47.2L228.412 49.15L228.712 51.4L228.262 56.05C228.262 56.25 228.462 56.6 228.862 57.1C229.162 57.7 229.312 58.1 229.312 58.3L229.012 64.15L228.862 64C228.062 64 227.662 64.35 227.662 65.05C227.662 65.65 227.962 65.95 228.562 65.95L228.862 65.8L229.462 69.4C229.462 69.3 229.412 69.25 229.312 69.25C229.312 69.25 229.262 69.35 229.162 69.55C229.162 69.75 229.112 70.1 229.012 70.6C229.012 70.7 229.012 70.8 229.012 70.9C229.112 70.9 229.162 70.95 229.162 71.05C229.162 71.45 229.012 72.05 228.712 72.85L229.462 73.3V75.25L229.912 76.3L229.462 76.9C229.462 77.3 229.462 77.85 229.462 78.55C229.462 79.15 229.412 79.85 229.312 80.65C229.312 80.65 229.162 80.9 228.862 81.4C228.562 81.8 228.412 82.05 228.412 82.15C228.512 82.25 228.662 82.5 228.862 82.9C229.062 83.2 229.162 83.45 229.162 83.65C228.462 84.15 227.912 84.75 227.512 85.45C227.412 85.85 227.262 86.35 227.062 86.95C226.962 87.45 226.762 88.1 226.462 88.9C226.262 89.3 225.762 89.7 224.962 90.1C223.962 90.4 223.412 90.9 223.312 91.6L222.562 91.45C222.162 91.55 221.662 91.7 221.062 91.9C220.562 92.1 220.012 92.3 219.412 92.5C219.112 92.3 218.662 92.15 218.062 92.05C217.962 92.05 217.662 92.3 217.162 92.8C216.762 93.2 216.512 93.4 216.412 93.4C216.312 93.4 216.162 93.3 215.962 93.1C215.762 92.9 215.612 92.8 215.512 92.8L215.212 92.95H214.762L214.162 92.65C213.762 92.25 213.512 92.05 213.412 92.05C212.812 91.75 212.012 91.6 211.012 91.6C210.512 90.6 209.562 90.2 208.162 90.4C208.062 90.2 207.662 90.45 206.962 91.15L208.312 94C208.112 94.1 207.862 94.25 207.562 94.45C207.362 94.65 207.062 94.85 206.662 95.05C206.662 95.15 206.912 95.45 207.412 95.95C207.412 96.05 207.362 96.15 207.262 96.25C207.262 96.35 207.262 96.5 207.262 96.7C207.262 97.4 207.662 98.25 208.462 99.25L209.062 108.55C208.962 108.65 208.912 109 208.912 109.6C208.912 110.3 208.862 111.2 208.762 112.3V112.15C208.762 112.15 208.612 112.65 208.312 113.65L207.412 113.35C207.312 113.35 207.212 113.4 207.112 113.5L206.662 113.65C206.462 113.65 206.162 113.45 205.762 113.05H205.012L203.812 113.35L202.762 113.65C202.662 113.65 202.562 113.6 202.462 113.5C202.362 113.5 202.212 113.45 202.012 113.35C201.512 113.15 201.212 113.1 201.112 113.2L200.812 113.35H200.512C200.412 113.35 200.062 113.25 199.462 113.05L198.562 112.6C198.462 112.6 198.212 112.8 197.812 113.2C197.412 113.6 197.062 113.8 196.762 113.8L194.812 114.1ZM219.562 32.35C219.662 32.15 219.612 31.95 219.412 31.75C219.312 31.65 219.062 31.7 218.662 31.9C218.862 32.2 219.162 32.35 219.562 32.35ZM201.412 36.85C201.512 36.75 201.412 36.6 201.112 36.4C200.912 36.4 200.762 36.45 200.662 36.55L201.412 36.85ZM207.712 82.45L208.312 82.15C209.712 81.35 210.812 80.95 211.612 80.95C212.112 80.95 212.512 81.15 212.812 81.55C213.112 81.75 213.512 81.75 214.012 81.55V80.95C214.212 79.55 214.212 78.1 214.012 76.6C214.712 76.2 215.062 75.55 215.062 74.65C215.062 73.95 214.862 73.25 214.462 72.55C214.062 71.85 213.912 71.45 214.012 71.35C214.312 70.55 214.462 70.1 214.462 70L213.562 68.35C213.562 65.25 213.462 63.6 213.262 63.4C213.462 62.5 213.912 62.05 214.612 62.05L215.362 62.5L216.112 62.35V61.6C215.612 61.6 215.312 61.4 215.212 61C215.112 60.7 214.912 60.4 214.612 60.1C214.212 59.9 213.912 59.7 213.712 59.5C213.612 59.2 213.462 58.3 213.262 56.8V55.75C213.262 54.35 213.412 53.5 213.712 53.2C213.612 53.1 213.462 52.75 213.262 52.15L213.112 47.5C213.212 47.1 213.262 46.6 213.262 46C213.362 45.3 213.362 44.55 213.262 43.75L213.562 43.3L213.112 42.85C213.112 42.65 213.062 42.45 212.962 42.25C212.962 42.05 212.912 41.8 212.812 41.5C213.012 40.6 212.962 39.95 212.662 39.55L209.512 37C209.712 37.6 209.712 38 209.512 38.2L209.062 38.35L208.612 37.3C208.412 37.2 208.162 37.15 207.862 37.15C207.662 37.15 207.362 37.1 206.962 37C207.162 37.6 207.262 38 207.262 38.2C207.262 38.8 207.012 39.35 206.512 39.85H206.062C205.062 39.85 204.462 40.15 204.262 40.75V41.35C204.262 41.65 204.262 42.05 204.262 42.55C204.262 43.05 204.312 43.65 204.412 44.35C204.512 46.55 204.712 47.65 205.012 47.65L205.162 47.5C205.262 47.6 205.412 47.65 205.612 47.65C205.812 47.65 206.012 47.7 206.212 47.8C206.112 48.1 206.062 48.5 206.062 49C206.062 49.4 206.062 49.9 206.062 50.5L206.512 53.05C206.612 53.15 206.562 53.35 206.362 53.65L206.062 54.4L206.512 55.45L206.362 56.8L206.662 58.9L207.112 59.8C207.112 59.9 207.062 60.15 206.962 60.55C206.862 60.95 206.712 61.5 206.512 62.2L206.662 67.6C206.862 67.8 207.012 68.05 207.112 68.35C207.312 68.55 207.462 68.8 207.562 69.1L207.412 69.4C207.312 69.5 207.262 69.65 207.262 69.85C207.162 70.15 207.112 70.6 207.112 71.2C207.112 71.8 207.212 72.5 207.412 73.3L207.712 74.5C207.612 74.7 207.512 74.95 207.412 75.25C207.312 75.55 207.212 75.9 207.112 76.3L206.962 77.5C206.962 77.7 206.862 77.9 206.662 78.1C206.662 78.3 206.762 78.6 206.962 79C206.962 79.1 206.912 79.15 206.812 79.15C206.712 79.15 206.662 79.25 206.662 79.45C206.662 79.65 206.762 79.75 206.962 79.75L206.812 80.2C206.812 80.4 206.812 80.65 206.812 80.95C206.812 81.15 206.862 81.45 206.962 81.85C207.062 82.25 207.312 82.45 207.712 82.45ZM201.712 39.25C201.812 39.05 201.762 38.85 201.562 38.65C201.462 38.55 201.212 38.6 200.812 38.8C201.012 39.1 201.312 39.25 201.712 39.25ZM228.412 44.05V43.9C228.412 43.9 228.412 43.95 228.412 44.05ZM224.662 67L225.262 66.7L224.962 66.25C224.862 66.35 224.812 66.45 224.812 66.55C224.812 66.65 224.762 66.8 224.662 67ZM219.112 72.1C219.312 72.1 219.512 72 219.712 71.8C219.812 71.7 219.762 71.5 219.562 71.2C219.262 71.3 219.112 71.6 219.112 72.1ZM226.912 81.1C226.912 80.8 226.812 80.55 226.612 80.35C226.412 80.15 226.212 80.25 226.012 80.65C226.212 80.95 226.512 81.1 226.912 81.1ZM197.512 89.8C197.912 89.4 198.062 89.15 197.962 89.05L198.562 89.35C198.862 89.35 199.112 89.1 199.312 88.6C198.812 87.8 198.112 87.4 197.212 87.4C196.612 87.4 196.312 87.8 196.312 88.6L196.762 89.8H197.512ZM195.712 92.95C195.812 92.75 195.762 92.55 195.562 92.35C195.462 92.25 195.212 92.3 194.812 92.5C195.012 92.8 195.312 92.95 195.712 92.95ZM258.069 93.25L255.519 93.1C254.719 93 254.069 92.95 253.569 92.95C253.169 92.95 252.919 92.95 252.819 92.95C251.319 92.95 250.419 92.9 250.119 92.8L247.569 91.45C247.369 91.35 247.119 91.25 246.819 91.15C246.519 91.05 246.169 90.95 245.769 90.85C245.169 90.55 244.869 90.05 244.869 89.35C244.669 89.25 244.469 89.2 244.269 89.2C244.069 89.1 243.869 89.05 243.669 89.05C243.669 88.15 243.469 87.55 243.069 87.25L242.019 86.8C241.819 86.6 241.569 86.05 241.269 85.15L240.669 83.65V83.2C240.669 83 240.619 82.75 240.519 82.45C240.519 82.05 240.469 81.65 240.369 81.25C240.369 80.45 240.369 79.75 240.369 79.15C240.469 78.55 240.569 78.05 240.669 77.65C240.269 77.45 239.969 77.15 239.769 76.75C239.669 76.55 239.719 76.15 239.919 75.55L240.069 74.2C240.169 73.7 240.219 73.25 240.219 72.85C240.219 72.45 240.269 72.05 240.369 71.65C240.369 71.15 240.519 70.55 240.819 69.85C241.219 69.15 241.419 68.7 241.419 68.5C241.419 68.4 241.319 68.25 241.119 68.05C240.919 67.85 240.819 67.75 240.819 67.75C240.819 67.55 240.769 67.4 240.669 67.3C240.669 67.2 240.669 67.1 240.669 67C240.669 66.4 240.819 65.8 241.119 65.2C240.719 64.5 240.519 63.65 240.519 62.65C240.519 61.85 240.769 61.1 241.269 60.4C240.969 60 240.719 59.6 240.519 59.2V55.3C240.519 55.3 240.419 55.1 240.219 54.7C240.019 54.5 239.919 54.3 239.919 54.1C239.919 53.8 240.469 52.7 241.569 50.8C240.769 50.3 240.369 50 240.369 49.9L241.119 47.2C241.119 47 241.069 46.7 240.969 46.3C240.969 45.9 240.969 45.45 240.969 44.95L240.819 42.55C240.719 41.45 240.719 40.55 240.819 39.85C240.919 39.15 240.919 38.6 240.819 38.2C240.519 37.7 240.169 37.45 239.769 37.45V36.7L241.119 36.1C241.119 35.9 241.069 35.75 240.969 35.65H238.419V36.1C238.419 36.5 238.619 36.85 239.019 37.15C239.419 37.45 239.619 37.7 239.619 37.9L237.819 37.75C237.419 37.65 237.069 37.6 236.769 37.6C236.569 37.6 236.419 37.6 236.319 37.6L235.419 37.9C234.819 38.1 234.519 38.2 234.519 38.2C234.119 38.2 233.519 38 232.719 37.6C232.619 37.4 232.619 37.1 232.719 36.7L233.019 35.8C232.919 35.5 232.869 35.2 232.869 34.9C232.869 34.6 232.869 34.35 232.869 34.15C233.069 33.55 233.419 33.2 233.919 33.1C233.519 32.7 233.269 32.3 233.169 31.9C233.169 31.4 233.169 30.9 233.169 30.4L233.019 29.65C233.219 28.75 233.269 28.2 233.169 28L232.719 27.25C232.519 26.85 232.419 26.6 232.419 26.5L233.019 25.15C233.119 25.05 233.269 25 233.469 25C233.669 25 233.919 24.95 234.219 24.85C234.519 24.75 234.719 24.55 234.819 24.25H235.119L236.619 24.7L238.569 25.3C238.669 25.4 238.769 25.55 238.869 25.75C238.969 25.95 239.069 26.2 239.169 26.5C239.569 26.2 239.969 25.8 240.369 25.3C240.769 24.8 241.169 24.2 241.569 23.5C242.169 23.1 242.219 22.8 241.719 22.6C241.419 22.4 241.269 22.1 241.269 21.7L241.419 16.9C240.919 15.1 240.669 13.85 240.669 13.15L241.119 11.95L241.419 10.75C241.419 10.45 241.269 10.2 240.969 10C240.669 9.79999 240.519 9.39999 240.519 8.79999L240.819 7.3C241.019 7.2 241.219 7.05 241.419 6.84999C241.619 6.65 241.919 6.4 242.319 6.09999C242.919 5.5 243.269 5.2 243.369 5.2L244.719 5.8C245.119 5.9 245.419 6.05 245.619 6.25C245.819 6.45 245.969 6.55 246.069 6.55L246.519 6.4H249.819C250.519 6.4 251.069 6.45 251.469 6.55C251.969 6.55 252.369 6.55 252.669 6.55L253.719 6.25C254.319 6.05 254.619 5.95 254.619 5.95C255.319 5.95 255.669 6.44999 255.669 7.44999C255.669 7.75 255.619 8.15 255.519 8.65C255.519 9.05 255.469 9.55 255.369 10.15L254.769 10C254.369 10 253.869 10.2 253.269 10.6C252.369 11.1 252.019 11.75 252.219 12.55C252.419 12.75 252.519 12.85 252.519 12.85C252.619 12.85 252.819 12.7 253.119 12.4C253.519 12.2 253.769 12.1 253.869 12.1C254.369 12.1 254.869 12.5 255.369 13.3C255.769 14 255.969 14.45 255.969 14.65C255.969 14.85 255.869 15.1 255.669 15.4C255.569 15.6 255.469 15.75 255.369 15.85C255.269 17.55 255.169 18.75 255.069 19.45C255.069 20.15 255.069 20.3 255.069 19.9C254.369 20 254.019 20.3 254.019 20.8C254.019 21.3 254.319 21.65 254.919 21.85V22.75C254.919 23.35 255.169 24.4 255.669 25.9C255.769 26.1 256.119 26.4 256.719 26.8H257.169V25.75C257.269 25.35 257.569 25.15 258.069 25.15C260.069 24.85 260.919 24.7 260.619 24.7L261.369 24.85C261.669 24.95 261.969 25 262.269 25L263.769 26.05C263.669 26.45 263.619 26.85 263.619 27.25C263.619 27.55 263.619 27.95 263.619 28.45C264.419 29.25 264.819 29.6 264.819 29.5C264.819 29.8 264.619 30.15 264.219 30.55C264.319 30.65 264.419 30.75 264.519 30.85C264.319 30.95 264.169 31.35 264.069 32.05L264.219 32.5C264.319 32.7 264.369 32.9 264.369 33.1C264.369 33.9 264.319 34.7 264.219 35.5C264.219 36.2 264.169 36.85 264.069 37.45C263.869 38.05 263.569 38.35 263.169 38.35H263.019H263.169C263.169 38.25 262.719 38.05 261.819 37.75C261.419 37.65 260.619 37.6 259.419 37.6C258.919 37.6 257.919 37.75 256.419 38.05L255.819 38.5C255.419 38.7 255.219 38.8 255.219 38.8L255.069 40.15C254.969 41.15 254.819 41.65 254.619 41.65C255.219 43.05 255.519 44.35 255.519 45.55C255.419 45.55 255.169 46.15 254.769 47.35C254.869 47.15 254.919 47.7 254.919 49L254.619 49.75C254.419 50.35 254.319 50.65 254.319 50.65L254.769 52.45C254.969 52.95 255.069 53.4 255.069 53.8C255.069 54.1 255.069 54.3 255.069 54.4C255.069 54.4 254.869 54.65 254.469 55.15C254.369 55.15 254.319 55.4 254.319 55.9C254.319 56.5 254.569 56.9 255.069 57.1V62.05C255.069 62.15 254.969 62.3 254.769 62.5C254.569 62.9 254.469 63.15 254.469 63.25C254.369 63.95 254.369 64.55 254.469 65.05C254.669 65.85 254.819 66.2 254.919 66.1C254.619 66.4 254.369 66.7 254.169 67C254.369 67.2 254.619 67.9 254.919 69.1C253.719 69.8 253.119 70.4 253.119 70.9C253.119 70.7 253.519 71.3 254.319 72.7C254.319 72.7 254.419 73.5 254.619 75.1L254.919 75.55C254.919 75.95 254.919 76.4 254.919 76.9C254.919 77.3 254.969 77.8 255.069 78.4C255.069 78.4 255.669 78.8 256.869 79.6C256.869 80 257.119 80.35 257.619 80.65H257.919C258.119 80.65 258.469 80.45 258.969 80.05C259.369 79.65 259.719 79.45 260.019 79.45C260.019 79.45 260.219 79.55 260.619 79.75C260.819 79.95 260.969 80.05 261.069 80.05C261.269 80.05 261.569 79.95 261.969 79.75C262.169 79.55 262.369 79.4 262.569 79.3C262.769 79.1 263.019 78.9 263.319 78.7L263.919 79.15V85.45C263.919 85.55 263.869 85.65 263.769 85.75C263.569 85.95 263.469 86.1 263.469 86.2V87.7C263.269 87.9 263.069 88.05 262.869 88.15C262.969 88.85 263.169 89.4 263.469 89.8C263.769 90.1 263.919 90.55 263.919 91.15C263.919 92.15 263.369 92.65 262.269 92.65H261.819C261.719 92.65 261.619 92.6 261.519 92.5C261.519 92.5 261.469 92.5 261.369 92.5L259.719 92.95C259.219 93.05 258.819 93.1 258.519 93.1C258.319 93.2 258.169 93.25 258.069 93.25ZM245.919 29.5C246.519 29.5 246.819 29.2 246.819 28.6L246.519 27.7H245.769C245.469 28 245.219 28.25 245.019 28.45C244.919 28.65 244.819 28.8 244.719 28.9C244.819 29 244.869 29.15 244.869 29.35H245.469C245.569 29.35 245.619 29.4 245.619 29.5C245.719 29.5 245.819 29.5 245.919 29.5ZM260.619 29.2L261.219 28.9L260.469 28.45C260.369 28.55 260.269 28.6 260.169 28.6L260.619 29.2ZM264.519 30.85V31.15C264.519 31.05 264.519 30.95 264.519 30.85ZM248.919 32.95C249.019 32.85 248.919 32.65 248.619 32.35L248.169 32.65C248.269 32.75 248.369 32.8 248.469 32.8C248.669 32.8 248.819 32.85 248.919 32.95ZM249.069 35.35C249.169 35.15 249.119 34.95 248.919 34.75C248.719 34.55 248.469 34.55 248.169 34.75C248.269 34.95 248.569 35.15 249.069 35.35ZM255.519 45.55V45.7V45.55ZM251.169 60.85L251.469 60.7C251.569 60.6 251.669 60.55 251.769 60.55L251.469 60.1C251.369 60.2 251.319 60.3 251.319 60.4C251.319 60.5 251.269 60.65 251.169 60.85ZM245.319 65.65C245.519 65.75 245.719 65.7 245.919 65.5C246.119 65.3 246.069 65.05 245.769 64.75C245.469 64.85 245.319 65.15 245.319 65.65ZM244.119 84.55L244.869 85.3C245.069 85.3 245.419 85.25 245.919 85.15L246.669 84.25L245.619 83.35C245.519 83.45 245.019 83.65 244.119 83.95V84.55ZM240.219 88.75C240.019 88.75 239.769 88.6 239.469 88.3C239.569 88.2 239.719 88.15 239.919 88.15C240.219 88.15 240.319 88.35 240.219 88.75ZM282.017 91.9L279.917 91.3C279.717 91.3 279.467 91.35 279.167 91.45L278.267 91.6C278.167 91.6 277.917 91.5 277.517 91.3L276.917 91C276.817 91 276.767 91.05 276.767 91.15H276.467C275.867 91.05 275.517 90.8 275.417 90.4V88.75C275.417 88.35 275.267 87.7 274.967 86.8L276.017 86.05C275.817 85.45 275.717 85 275.717 84.7C275.117 83.7 274.767 83.35 274.667 83.65C274.867 82.95 275.217 82.55 275.717 82.45C276.217 82.25 276.467 81.75 276.467 80.95V80.2L275.117 81.1C274.517 80.7 274.267 79.4 274.367 77.2C274.467 76.2 274.467 75.4 274.367 74.8L273.617 73.3C273.617 73 273.617 72.65 273.617 72.25C273.617 71.75 273.567 71.2 273.467 70.6C273.567 70.5 273.717 70.25 273.917 69.85C274.417 68.95 274.567 68.4 274.367 68.2L272.717 62.95C272.717 62.35 272.867 62 273.167 61.9C273.867 61.4 274.267 61.05 274.367 60.85H273.167C272.467 60.65 272.067 60.05 271.967 59.05C271.867 58.65 271.817 58.3 271.817 58C271.817 57.7 271.817 57.35 271.817 56.95L271.367 54.85L270.767 53.65C270.767 53.25 270.767 52.4 270.767 51.1C270.767 49.7 270.717 47.85 270.617 45.55L270.317 45.1C270.417 44.9 270.467 44.45 270.467 43.75L269.267 43.15C269.467 42.05 269.617 41.05 269.717 40.15C269.817 39.15 269.917 38.15 270.017 37.15C269.817 37.05 269.617 36.35 269.417 35.05C269.217 33.95 269.117 33.4 269.117 33.4L268.367 33.55V32.95C268.667 32.75 268.917 32.4 269.117 31.9C269.117 31.7 268.867 30.7 268.367 28.9C268.267 28.6 268.067 28.45 267.767 28.45L267.917 27.85C268.117 27.45 268.167 27.2 268.067 27.1C267.567 26.8 267.267 26.45 267.167 26.05C266.867 24.95 266.767 24.25 266.867 23.95C266.867 22.95 267.167 22.45 267.767 22.45L269.867 23.5H270.617L271.667 23.65C271.867 23.65 272.117 23.65 272.417 23.65C272.717 23.65 273.067 23.7 273.467 23.8L274.667 24.25C274.767 24.25 275.117 24.1 275.717 23.8C276.317 23.5 276.717 23.35 276.917 23.35L278.267 23.8C279.067 24.1 279.517 24.25 279.617 24.25L281.867 24.1C281.967 24.3 281.917 24.65 281.717 25.15L281.417 25.75C281.417 25.85 281.417 26.05 281.417 26.35C281.517 26.55 281.617 26.8 281.717 27.1C281.817 27.5 281.867 27.85 281.867 28.15C281.867 28.35 281.867 28.55 281.867 28.75C281.867 29.35 281.717 29.8 281.417 30.1L282.317 34.9C282.117 35 281.567 35.05 280.667 35.05C280.067 35.45 279.767 35.9 279.767 36.4C279.767 37 280.167 37.6 280.967 38.2C281.167 38.4 281.317 38.5 281.417 38.5L281.867 38.2C281.967 38.1 282.117 38.05 282.317 38.05C282.517 38.25 282.617 38.5 282.617 38.8L282.317 39.85C282.617 40.15 282.817 40.6 282.917 41.2L282.767 42.1C282.667 42.4 282.617 42.7 282.617 43L283.367 43.75C283.367 43.95 283.267 44.15 283.067 44.35H282.617C282.117 44.35 281.567 44.5 280.967 44.8C280.967 45 280.967 45.2 280.967 45.4C281.067 45.6 281.167 45.8 281.267 46L281.867 46.15C281.967 46.15 282.117 46.05 282.317 45.85H282.917C282.917 46.25 282.867 46.55 282.767 46.75L282.467 47.35L283.217 49.75L283.967 51.25C284.267 51.65 284.417 52 284.417 52.3C284.417 52.4 284.317 52.55 284.117 52.75C283.817 52.85 283.667 53 283.667 53.2L284.267 54.4C284.467 54.6 284.667 55.05 284.867 55.75L285.617 54.55C285.617 54.35 285.767 54.1 286.067 53.8C287.067 53.7 287.567 53.4 287.567 52.9C287.467 52.9 287.417 52.85 287.417 52.75V52C287.617 51.6 287.817 51.2 288.017 50.8C288.317 50.4 288.567 50 288.767 49.6L288.467 48.25L288.167 47.05L289.367 45.7V43.6L290.117 41.35C290.117 41.35 290.017 41.25 289.817 41.05C289.817 40.15 290.117 38.9 290.717 37.3L290.867 36.4L291.767 35.35V31.3C292.267 31 292.517 30.75 292.517 30.55V27.1C292.617 25.5 293.167 24.7 294.167 24.7C295.767 24.7 296.567 25.15 296.567 26.05L297.017 26.2C297.117 25.9 297.517 25.5 298.217 25C298.217 25 298.617 25.25 299.417 25.75C300.217 26.25 300.617 26.5 300.617 26.5C300.917 26.6 301.317 26.5 301.817 26.2C302.217 26 302.417 25.9 302.417 25.9L303.167 26.05C303.467 26.05 303.767 26 304.067 25.9L304.817 25.75C305.017 25.75 305.267 25.8 305.567 25.9L306.167 26.2C306.367 26.2 306.517 26.15 306.617 26.05L307.067 25.9C307.767 25.9 308.067 26.55 307.967 27.85C307.867 27.95 307.717 28.15 307.517 28.45C307.317 28.75 307.117 29.1 306.917 29.5L305.867 32.8C305.567 32.9 305.367 33.15 305.267 33.55V35.35C304.867 35.55 304.517 35.8 304.217 36.1L304.517 36.7C304.617 36.9 304.667 37.1 304.667 37.3L304.817 39.4C304.717 40 304.367 40.3 303.767 40.3C303.567 40.3 303.317 40.1 303.017 39.7C302.317 40.1 301.967 40.55 301.967 41.05C301.967 41.45 302.417 42.05 303.317 42.85C302.817 43.65 302.617 44.05 302.717 44.05C302.117 44.05 301.817 44.2 301.817 44.5C301.817 44.8 302.117 45.2 302.717 45.7L302.117 47.65C301.917 47.65 301.717 47.8 301.517 48.1L300.467 49.9L301.367 52.9C301.367 53.4 301.267 53.85 301.067 54.25C300.767 54.95 300.267 55.35 299.567 55.45C298.967 55.55 298.517 55.75 298.217 56.05C298.217 56.05 298.117 56.4 297.917 57.1C297.817 57.4 297.667 57.55 297.467 57.55H296.567C296.567 57.85 296.667 58 296.867 58C296.867 57.9 297.017 57.85 297.317 57.85C297.717 57.85 297.917 58 297.917 58.3L297.767 58.9C297.667 59.1 297.617 59.35 297.617 59.65C297.617 60.05 297.867 60.4 298.367 60.7L298.217 61.15L297.767 61.6C297.767 62.6 297.417 63.8 296.717 65.2C296.717 65.4 296.667 65.65 296.567 65.95C296.567 66.25 296.517 66.6 296.417 67C296.117 67.3 295.817 67.75 295.517 68.35C295.717 68.85 295.717 69.65 295.517 70.75C295.417 70.85 295.317 70.95 295.217 71.05C295.117 71.05 295.017 71.15 294.917 71.35C294.317 71.15 293.867 71.05 293.567 71.05C292.967 71.05 292.667 71.2 292.667 71.5C292.667 71.9 293.267 72.35 294.467 72.85L294.317 73.6C294.317 74 294.017 74.3 293.417 74.5C292.617 74.7 292.167 75.05 292.067 75.55C292.367 75.55 292.717 75.7 293.117 76C293.717 76.8 293.967 77.5 293.867 78.1L292.967 79.3C292.967 79.8 292.917 80.2 292.817 80.5C292.517 80.6 292.117 81.05 291.617 81.85C291.417 82.25 291.217 82.6 291.017 82.9C290.917 83.1 290.767 83.3 290.567 83.5C290.367 83.1 290.117 82.8 289.817 82.6C289.117 82.6 288.767 82.9 288.767 83.5L289.067 85L290.117 83.8C290.817 83.9 291.167 84.25 291.167 84.85C291.167 85.65 291.217 86.2 291.317 86.5C291.017 86.6 290.617 86.8 290.117 87.1C289.717 87.3 289.267 87.6 288.767 88V88.3C289.167 88.3 289.567 88.6 289.967 89.2C290.267 89.7 290.367 90.15 290.267 90.55C290.167 90.75 289.717 91.1 288.917 91.6C287.917 91.8 286.867 91.9 285.767 91.9C284.667 92 283.417 92 282.017 91.9ZM278.717 27.25C278.717 27.05 278.617 26.85 278.417 26.65C278.317 26.55 278.117 26.6 277.817 26.8C277.817 27.1 278.117 27.25 278.717 27.25ZM304.367 28.9L304.967 28.6C304.967 28.4 304.917 28.25 304.817 28.15C304.717 28.25 304.567 28.5 304.367 28.9ZM272.417 32.5C272.517 32.3 272.467 32.1 272.267 31.9C272.067 31.7 271.867 31.7 271.667 31.9C271.667 32.1 271.917 32.3 272.417 32.5ZM298.217 33.25C298.517 33.35 298.767 33.3 298.967 33.1C299.067 33 299.017 32.75 298.817 32.35C298.617 32.45 298.417 32.75 298.217 33.25ZM292.667 48.55C292.567 48.45 292.517 48.15 292.517 47.65L291.617 47.8L291.767 48.55H292.667ZM276.617 55.15C277.217 55.15 277.667 54.95 277.967 54.55C278.267 53.95 278.567 53.65 278.867 53.65C279.067 53.65 279.367 53.85 279.767 54.25C280.167 54.65 280.417 54.85 280.517 54.85C280.917 54.95 281.267 54.75 281.567 54.25C281.467 53.75 281.167 53.3 280.667 52.9L278.867 52.3C278.667 52.3 278.167 52.6 277.367 53.2L276.917 52.9C276.817 52.8 276.667 52.75 276.467 52.75C276.167 52.75 275.967 52.8 275.867 52.9C275.867 53.2 275.767 53.55 275.567 53.95V54.1C275.567 54.7 275.917 55.05 276.617 55.15ZM294.167 62.8C294.267 62.6 294.217 62.4 294.017 62.2C293.817 62 293.617 62 293.417 62.2C293.417 62.4 293.667 62.6 294.167 62.8ZM281.717 62.8V62.65L280.967 62.5V62.8H281.717ZM281.867 64.3L282.617 64.15L282.467 63.55C282.067 63.65 281.867 63.9 281.867 64.3ZM277.517 67.9L277.217 67.3C277.117 67.3 276.967 67.4 276.767 67.6H277.067L277.517 67.9ZM287.117 78.25C288.217 77.95 288.967 77.8 289.367 77.8V77.05L288.167 76.75L287.117 77.65V78.25ZM279.467 89.35C279.067 88.65 278.717 88.3 278.417 88.3L277.967 88.75C278.067 89.15 278.567 89.35 279.467 89.35Z" fill="black"/>
</svg>
